<svg xmlns="http://www.w3.org/2000/svg" viewBox="0 0 209.1 97.8"><defs><style>.b62372e6-7436-4994-965d-e9147e52ce48{fill:#edf6fc;}.be146220-ea6e-4f09-a090-e2fcc43b90c1{fill:#d2e9f7;}.a088ae52-4538-418f-a1d8-d2a5cb532b94{fill:#9ecfef;}.ebccd23c-3871-463c-8d3f-47a091999fb5{fill:#0686d8;}.b3dfd508-18a8-461a-827a-142f3c5e9f24{fill:#5fb0e5;}.af24252e-42a0-4571-a59c-e2c902454b1c{fill:#fff;}.bf42a8fc-a83d-4378-829e-de201395df16{opacity:0.3;}.a2380efa-0b1c-4340-9a61-e6bc48dcd7a9{fill:#ecf5fc;}</style></defs><g id="a1e7bf05-c3ec-41aa-9d2d-8e34199b744a" data-name="Ebene 2"><g id="adb5e473-15b4-4173-badb-0682a7f0ace4" data-name="Online Store"><path class="b62372e6-7436-4994-965d-e9147e52ce48" d="M9.2,8.4H192.7a8.7,8.7,0,0,1,8.7,8.7h0a8.7,8.7,0,0,1-8.7,8.7H156.8a7.6,7.6,0,0,0-7.6,7.5h0a7.6,7.6,0,0,0,7.6,7.6h43.9a8.5,8.5,0,0,1,8.4,8.4h0a8.5,8.5,0,0,1-8.4,8.4h-22a15.2,15.2,0,0,1-15.2,15.1h0a6.7,6.7,0,0,0-6.7,6.7V97.4H60.5V95.9A16.1,16.1,0,0,0,44.4,79.7l-27.7-.4A9.3,9.3,0,0,1,7.5,70h0a9.2,9.2,0,0,1,9.3-9.2H44.5A15.2,15.2,0,0,1,59.8,45.5h1.3a9.3,9.3,0,0,0,9.3-9.3h0a9.4,9.4,0,0,0-9.3-9.4H9.2A9.2,9.2,0,0,1,0,17.6H0A9.2,9.2,0,0,1,9.2,8.4Z"/><path class="be146220-ea6e-4f09-a090-e2fcc43b90c1" d="M144,62.8H172a.6.6,0,0,1,.6.6V92.2a0,0,0,0,1,0,0H143.4a0,0,0,0,1,0,0V63.4A.6.6,0,0,1,144,62.8Z"/><polygon class="a088ae52-4538-418f-a1d8-d2a5cb532b94" points="172.7 92.2 143.4 92.2 142.7 97 173.4 97 172.7 92.2"/><path class="ebccd23c-3871-463c-8d3f-47a091999fb5" d="M173.4,92.2h-1.5V63.5H146V62h26a1.4,1.4,0,0,1,1.4,1.4Z"/><polygon class="ebccd23c-3871-463c-8d3f-47a091999fb5" points="174.2 97.8 141.8 97.8 142.2 93.9 143.7 94.1 143.5 96.3 172.5 96.3 172 93 151 93 151 91.5 173.3 91.5 174.2 97.8"/><path class="b3dfd508-18a8-461a-827a-142f3c5e9f24" d="M150.4,67.6a1.6,1.6,0,1,1-3.2,0,1.6,1.6,0,1,1,3.2,0Z"/><path class="b3dfd508-18a8-461a-827a-142f3c5e9f24" d="M168.8,67.6a1.6,1.6,0,0,1-3.2,0,1.6,1.6,0,1,1,3.2,0Z"/><path class="ebccd23c-3871-463c-8d3f-47a091999fb5" d="M167.9,67.6h-1.5V64.1a8.4,8.4,0,0,0-16.8,0v3.5h-1.5V64.1a9.9,9.9,0,0,1,19.8,0Z"/><path class="ebccd23c-3871-463c-8d3f-47a091999fb5" d="M55.4,69.5l-1-.4c-.7-.3-6.4-3.1-7.6-5.1a4.6,4.6,0,0,1,8-4.6,6.6,6.6,0,0,1,.7,3,33,33,0,0,1-.1,6.1ZM50.8,58.6a2.8,2.8,0,0,0-1.5.4,3.1,3.1,0,0,0-1.2,4.2c.6,1.1,3.6,2.9,5.9,4a36.5,36.5,0,0,0,0-4.7,4.8,4.8,0,0,0-.5-2.4h0A3.1,3.1,0,0,0,50.8,58.6Z"/><path class="ebccd23c-3871-463c-8d3f-47a091999fb5" d="M55.4,69.1l-.6-1.4c2.3-1.1,6.2-3.3,6.9-4.5A3.1,3.1,0,0,0,60.5,59a3.2,3.2,0,0,0-3.6.3c-.2.3-.5.5-.6.8L55,59.4a2.7,2.7,0,0,1,.9-1.2A4.7,4.7,0,0,1,63,64C61.8,66,56.1,68.8,55.4,69.1Z"/><path class="af24252e-42a0-4571-a59c-e2c902454b1c" d="M40.6,70.3H69.2a0,0,0,0,1,0,0V95a1.8,1.8,0,0,1-1.8,1.8h-25A1.8,1.8,0,0,1,40.6,95V70.3A0,0,0,0,1,40.6,70.3Z"/><path class="ebccd23c-3871-463c-8d3f-47a091999fb5" d="M67.4,97.6h-25A2.6,2.6,0,0,1,39.8,95V94h1.5v1a1.1,1.1,0,0,0,1.1,1.1h25A1.1,1.1,0,0,0,68.5,95V71.1H41.3V86.2H39.8V69.6H70V95A2.6,2.6,0,0,1,67.4,97.6Z"/><rect class="ebccd23c-3871-463c-8d3f-47a091999fb5" x="39.8" y="88" width="1.5" height="4.47"/><rect class="be146220-ea6e-4f09-a090-e2fcc43b90c1" x="39" y="67.5" width="31.8" height="5.19" rx="1.1"/><path class="ebccd23c-3871-463c-8d3f-47a091999fb5" d="M66.2,73.4H40.1a1.9,1.9,0,0,1-1.9-1.8v-3a2,2,0,0,1,1.9-1.9H66.2v1.5H40.1a.4.4,0,0,0-.4.4v3c0,.2.2.3.4.3H66.2Z"/><rect class="b3dfd508-18a8-461a-827a-142f3c5e9f24" x="51.8" y="67.5" width="6.8" height="29.36"/><path class="ebccd23c-3871-463c-8d3f-47a091999fb5" d="M59.4,97.6H51V66.7h8.4Zm-6.9-1.5h5.4V68.2H52.5Z"/><rect class="ebccd23c-3871-463c-8d3f-47a091999fb5" x="51.4" y="69.4" width="7.2" height="1.5" transform="matrix(0.87, -0.5, 0.5, 0.87, -27.73, 36.91)"/><rect class="ebccd23c-3871-463c-8d3f-47a091999fb5" x="51.6" y="72.9" width="7.3" height="1.5" transform="translate(-29.4 37.5) rotate(-30)"/><rect class="ebccd23c-3871-463c-8d3f-47a091999fb5" x="51.5" y="76.5" width="7.3" height="1.5" transform="translate(-31.2 38) rotate(-30)"/><rect class="ebccd23c-3871-463c-8d3f-47a091999fb5" x="51.5" y="80.1" width="7.3" height="1.5" transform="matrix(0.87, -0.5, 0.5, 0.87, -33.02, 38.42)"/><rect class="ebccd23c-3871-463c-8d3f-47a091999fb5" x="51.5" y="83.7" width="7.3" height="1.5" transform="matrix(0.87, -0.5, 0.5, 0.87, -34.82, 38.89)"/><rect class="ebccd23c-3871-463c-8d3f-47a091999fb5" x="51.5" y="87.2" width="7.3" height="1.5" transform="matrix(0.87, -0.5, 0.5, 0.87, -36.62, 39.35)"/><rect class="ebccd23c-3871-463c-8d3f-47a091999fb5" x="51.4" y="90.8" width="7.3" height="1.5" transform="matrix(0.87, -0.5, 0.5, 0.87, -38.42, 39.82)"/><rect class="ebccd23c-3871-463c-8d3f-47a091999fb5" x="51.4" y="94.4" width="7.3" height="1.5" transform="matrix(0.87, -0.5, 0.5, 0.87, -40.22, 40.28)"/><path class="ebccd23c-3871-463c-8d3f-47a091999fb5" d="M68.4,17.9H64.1a.7.7,0,0,1-.7-.7.7.7,0,0,1,.7-.8h4.3a.8.8,0,0,1,.8.8A.8.8,0,0,1,68.4,17.9Z"/><path class="ebccd23c-3871-463c-8d3f-47a091999fb5" d="M66.3,20a.8.8,0,0,1-.8-.7V15a.8.8,0,0,1,.8-.7.7.7,0,0,1,.7.7v4.3A.7.7,0,0,1,66.3,20Z"/><path class="ebccd23c-3871-463c-8d3f-47a091999fb5" d="M138,25.8h-4.3a.8.8,0,0,1-.8-.7.8.8,0,0,1,.8-.8H138a.7.7,0,0,1,.7.8A.7.7,0,0,1,138,25.8Z"/><path class="ebccd23c-3871-463c-8d3f-47a091999fb5" d="M135.8,27.9a.7.7,0,0,1-.7-.7V22.9a.7.7,0,0,1,.7-.7.8.8,0,0,1,.8.7v4.3A.8.8,0,0,1,135.8,27.9Z"/><path class="ebccd23c-3871-463c-8d3f-47a091999fb5" d="M174.7,36.2a.6.6,0,0,1-.5-.2.8.8,0,0,1,0-1.1l3-3a.8.8,0,0,1,1.1,1.1l-3,3A.7.7,0,0,1,174.7,36.2Z"/><path class="ebccd23c-3871-463c-8d3f-47a091999fb5" d="M177.8,36.2a.7.7,0,0,1-.6-.2l-3-3a.8.8,0,0,1,1.1-1.1l3,3a.8.8,0,0,1,0,1.1A.6.6,0,0,1,177.8,36.2Z"/><path class="ebccd23c-3871-463c-8d3f-47a091999fb5" d="M87.9,5.3l-.5-.2a.8.8,0,0,1,0-1.1l3-3a.8.8,0,0,1,1.1,1.1l-3,3Z"/><path class="ebccd23c-3871-463c-8d3f-47a091999fb5" d="M91,5.3l-.6-.2-3-3A.8.8,0,0,1,88.5,1l3,3a.8.8,0,0,1,0,1.1Z"/><path class="ebccd23c-3871-463c-8d3f-47a091999fb5" d="M16.5,52.5a.5.5,0,0,1-.5-.3.7.7,0,0,1,0-1l3-3a.7.7,0,0,1,1,1l-3,3A.5.5,0,0,1,16.5,52.5Z"/><path class="ebccd23c-3871-463c-8d3f-47a091999fb5" d="M19.5,52.5a.5.5,0,0,1-.5-.3l-3-3a.7.7,0,0,1,1-1l3,3a.7.7,0,0,1,0,1A.5.5,0,0,1,19.5,52.5Z"/><rect class="ebccd23c-3871-463c-8d3f-47a091999fb5" x="97.3" y="2.3" width="40.7" height="1.5"/><rect class="ebccd23c-3871-463c-8d3f-47a091999fb5" x="76.5" y="16.4" width="17.4" height="1.5"/><rect class="ebccd23c-3871-463c-8d3f-47a091999fb5" x="16.5" y="40" width="29.5" height="1.5"/><rect class="ebccd23c-3871-463c-8d3f-47a091999fb5" x="154.4" y="33.2" width="17.4" height="1.5"/><rect class="ebccd23c-3871-463c-8d3f-47a091999fb5" x="71.4" y="16.4" width="3.6" height="1.5"/><path class="ebccd23c-3871-463c-8d3f-47a091999fb5" d="M28.6,75.7A1.3,1.3,0,0,1,27.4,77a1.3,1.3,0,0,1-1.3-1.3,1.3,1.3,0,0,1,1.3-1.2A1.3,1.3,0,0,1,28.6,75.7Z"/><path class="ebccd23c-3871-463c-8d3f-47a091999fb5" d="M50.7,40.8A1.7,1.7,0,0,1,49,42.5a1.7,1.7,0,1,1,0-3.4A1.7,1.7,0,0,1,50.7,40.8Z"/><path class="ebccd23c-3871-463c-8d3f-47a091999fb5" d="M139.7,14.1a1.6,1.6,0,0,1-1.7,1.7,1.6,1.6,0,0,1-1.6-1.7,1.6,1.6,0,0,1,1.6-1.6A1.6,1.6,0,0,1,139.7,14.1Z"/><path class="ebccd23c-3871-463c-8d3f-47a091999fb5" d="M195.9,35.5a1.8,1.8,0,0,1-1.7,1.7,1.7,1.7,0,0,1-1.7-1.7,1.6,1.6,0,0,1,1.7-1.7A1.7,1.7,0,0,1,195.9,35.5Z"/><path class="ebccd23c-3871-463c-8d3f-47a091999fb5" d="M31.5,21.2a1.1,1.1,0,0,1-1.1,1.1,1.1,1.1,0,0,1,0-2.2A1.1,1.1,0,0,1,31.5,21.2Z"/><path class="ebccd23c-3871-463c-8d3f-47a091999fb5" d="M124.5,27.5a.9.9,0,0,1-1,1,1,1,0,0,1-1.1-1,1.1,1.1,0,0,1,1.1-1.1A1,1,0,0,1,124.5,27.5Z"/><circle class="ebccd23c-3871-463c-8d3f-47a091999fb5" cx="187.9" cy="72" r="1.1"/><path class="ebccd23c-3871-463c-8d3f-47a091999fb5" d="M70,1.2a1.2,1.2,0,0,1-1.3,1.2,1.2,1.2,0,0,1-1.2-1.2A1.2,1.2,0,0,1,68.7,0,1.2,1.2,0,0,1,70,1.2Z"/><g class="bf42a8fc-a83d-4378-829e-de201395df16"><path class="ebccd23c-3871-463c-8d3f-47a091999fb5" d="M149.5,93.6l.6-3.6h-3.4V62H146v.8h-2a.5.5,0,0,0-.6.6V92.2l-.3,1.8h-.9l-.4,3.9h2.8A5,5,0,0,0,149.5,93.6Z"/></g><g class="bf42a8fc-a83d-4378-829e-de201395df16"><path class="ebccd23c-3871-463c-8d3f-47a091999fb5" d="M70,95V72.6a1,1,0,0,0,.8-1v-3a1.1,1.1,0,0,0-1.1-1.1H66.2v-.8H64.9V90H61.1l.7,4.1a4.3,4.3,0,0,0,3.1,3.5h2.5A2.6,2.6,0,0,0,70,95Z"/></g><rect class="b3dfd508-18a8-461a-827a-142f3c5e9f24" x="67.6" y="39.1" width="76.3" height="54.86" rx="1"/><path class="ebccd23c-3871-463c-8d3f-47a091999fb5" d="M142,94.7H69.5a2.6,2.6,0,0,1-2.6-2.6V41a2.7,2.7,0,0,1,2.6-2.7h8v1.5h-8A1.2,1.2,0,0,0,68.4,41V92.1a1.1,1.1,0,0,0,1.1,1.1H142a1.1,1.1,0,0,0,1.2-1.1V41a1.2,1.2,0,0,0-1.2-1.2h-8V38.3h8a2.7,2.7,0,0,1,2.7,2.7V92.1A2.7,2.7,0,0,1,142,94.7Z"/><rect class="af24252e-42a0-4571-a59c-e2c902454b1c" x="71.3" y="43.4" width="68.5" height="44.52"/><path class="af24252e-42a0-4571-a59c-e2c902454b1c" d="M142.6,97H68.1a3.7,3.7,0,0,1-3.6-3.1L64,90.7H98.5l1.3,1.9h9.6l1.4-1.9h36.4l-.5,2.8A4.2,4.2,0,0,1,142.6,97Z"/><path class="ebccd23c-3871-463c-8d3f-47a091999fb5" d="M142.6,97.8H68.1a4.3,4.3,0,0,1-4.3-3.7L63.1,90H98.9l1.3,1.9H109l1.4-1.9h37.7l-.6,3.6A5,5,0,0,1,142.6,97.8ZM64.9,91.5l.3,2.3a3.1,3.1,0,0,0,2.9,2.5h74.5a3.4,3.4,0,0,0,3.4-2.9l.3-1.9H111.2l-1.5,1.9H99.4l-1.3-1.9Z"/><polygon class="af24252e-42a0-4571-a59c-e2c902454b1c" points="75.6 32.4 75.6 35.3 79.3 38.1 79.3 43.9 132.1 43.9 132.1 38.1 135.8 35.3 135.8 32.4 75.6 32.4"/><polygon class="ebccd23c-3871-463c-8d3f-47a091999fb5" points="132.9 43.9 131.4 43.9 131.4 37.8 135.1 34.9 135.1 33.2 76.4 33.2 76.4 34.9 80.1 37.8 80.1 43.9 78.6 43.9 78.6 38.5 74.9 35.7 74.9 31.7 136.6 31.7 136.6 35.7 132.9 38.5 132.9 43.9"/><rect class="ebccd23c-3871-463c-8d3f-47a091999fb5" x="114.3" y="37.4" width="18.4" height="1.5"/><path class="af24252e-42a0-4571-a59c-e2c902454b1c" d="M80.8,45.4h50a1.3,1.3,0,0,1,1.3,1.3V87.1a0,0,0,0,1,0,0H79.5a0,0,0,0,1,0,0V46.7A1.3,1.3,0,0,1,80.8,45.4Z"/><path class="ebccd23c-3871-463c-8d3f-47a091999fb5" d="M132.9,87.9H78.7V47a2.6,2.6,0,0,1,2.7-2.4h4.1v1.5H81.4c-.6,0-1.2.4-1.2.9V86.4h51.2V47a1,1,0,0,0-1.1-.9h-30V44.6h30a2.5,2.5,0,0,1,2.6,2.4Z"/><rect class="b3dfd508-18a8-461a-827a-142f3c5e9f24" x="77.1" y="84.5" width="57.4" height="4.01" rx="1"/><path class="ebccd23c-3871-463c-8d3f-47a091999fb5" d="M135.3,88.6h-1.5V85.5l-.2-.2H78.1a.2.2,0,0,0-.2.2v3.1H76.4V85.5a1.6,1.6,0,0,1,1.7-1.7h55.5a1.7,1.7,0,0,1,1.7,1.7Z"/><rect class="b3dfd508-18a8-461a-827a-142f3c5e9f24" x="85.5" y="63.7" width="12.9" height="24.87"/><polygon class="a088ae52-4538-418f-a1d8-d2a5cb532b94" points="85.5 80.4 98.5 67.5 98.5 63.7 95.3 63.7 85.5 73.4 85.5 80.4"/><polygon class="a088ae52-4538-418f-a1d8-d2a5cb532b94" points="85.5 85.8 98.5 72.8 98.5 70.4 85.5 83.3 85.5 85.8"/><polygon class="ebccd23c-3871-463c-8d3f-47a091999fb5" points="99.2 87 97.7 87 97.7 64.4 86.3 64.4 86.3 87 84.8 87 84.8 62.9 99.2 62.9 99.2 87"/><rect class="b3dfd508-18a8-461a-827a-142f3c5e9f24" x="85.5" y="51.5" width="12.9" height="7.98"/><path class="ebccd23c-3871-463c-8d3f-47a091999fb5" d="M99.2,60.3H84.8V50.8H99.2ZM86.3,58.8H97.7V52.3H86.3Z"/><path class="ebccd23c-3871-463c-8d3f-47a091999fb5" d="M89.4,78.6a2.3,2.3,0,0,1-2.3-2.3A2.4,2.4,0,0,1,89.4,74a2.3,2.3,0,0,1,2.3,2.3A2.3,2.3,0,0,1,89.4,78.6Zm0-3.1a.9.9,0,0,0-.8.8.8.8,0,0,0,.8.8.7.7,0,0,0,.8-.8A.8.8,0,0,0,89.4,75.5Z"/><rect class="b3dfd508-18a8-461a-827a-142f3c5e9f24" x="106.7" y="59.2" width="17.9" height="20.53"/><polygon class="a088ae52-4538-418f-a1d8-d2a5cb532b94" points="106.7 66.6 106.7 76.6 124.1 59.2 114.1 59.2 106.7 66.6"/><polygon class="a088ae52-4538-418f-a1d8-d2a5cb532b94" points="113.8 79.7 124.6 68.9 124.6 63.6 108.5 79.7 113.8 79.7"/><path class="ebccd23c-3871-463c-8d3f-47a091999fb5" d="M125.3,80.5H105.9V58.4h19.4ZM107.4,79h16.4V59.9H107.4Z"/><path class="a088ae52-4538-418f-a1d8-d2a5cb532b94" d="M103,46.9h25a0,0,0,0,1,0,0V61.8a1.9,1.9,0,0,1-1.9,1.9H104.9a1.9,1.9,0,0,1-1.9-1.9V46.9A0,0,0,0,1,103,46.9Z"/><path class="be146220-ea6e-4f09-a090-e2fcc43b90c1" d="M106.7,63.7h0A3.8,3.8,0,0,1,103,60V46.9h3.7Z"/><rect class="be146220-ea6e-4f09-a090-e2fcc43b90c1" x="110.3" y="46.9" width="3.7" height="16.77"/><rect class="be146220-ea6e-4f09-a090-e2fcc43b90c1" x="117.7" y="46.9" width="3.7" height="16.77"/><path class="be146220-ea6e-4f09-a090-e2fcc43b90c1" d="M128,61.1V46.9h-3.4V63.7h.8A2.6,2.6,0,0,0,128,61.1Z"/><path class="ebccd23c-3871-463c-8d3f-47a091999fb5" d="M124.6,64.4H106.2a3.9,3.9,0,0,1-3.9-4V46.2h26.5V60.3A4.1,4.1,0,0,1,124.6,64.4ZM103.8,47.7V60.4a2.5,2.5,0,0,0,2.4,2.5h18.4a2.7,2.7,0,0,0,2.7-2.6V47.7Z"/><polygon class="b3dfd508-18a8-461a-827a-142f3c5e9f24" points="134.5 48.4 77.1 48.4 77.1 48.4 74.6 42.4 136.5 42.4 134.5 48.4"/><path class="ebccd23c-3871-463c-8d3f-47a091999fb5" d="M135.1,49.2H76.6l-3.1-7.6h64.1ZM77.6,47.7H134l1.5-4.6H75.8Z"/><rect class="ebccd23c-3871-463c-8d3f-47a091999fb5" x="179.1" y="53.5" width="1.5" height="10.18"/><polygon class="b3dfd508-18a8-461a-827a-142f3c5e9f24" points="180.2 63.9 179.6 63.9 178.6 65.2 178.6 82.8 181.1 82.8 181.1 65.2 180.2 63.9"/><polygon class="be146220-ea6e-4f09-a090-e2fcc43b90c1" points="180.3 64.1 180.2 63.9 179.6 63.9 178.6 65.2 178.6 82.8 179.6 82.8 179.6 65.2 180.3 64.1"/><polygon class="ebccd23c-3871-463c-8d3f-47a091999fb5" points="181.9 82.8 180.4 82.8 180.4 65.4 179.9 64.7 179.4 65.4 179.4 82.8 177.9 82.8 177.9 64.9 179.2 63.1 180.6 63.1 181.9 64.9 181.9 82.8"/><circle class="a088ae52-4538-418f-a1d8-d2a5cb532b94" cx="179.9" cy="53.5" r="8.1"/><path class="a2380efa-0b1c-4340-9a61-e6bc48dcd7a9" d="M179.7,45.4a8,8,0,0,0-5.8,2.5,7.7,7.7,0,0,1,4.2-1.3,8.1,8.1,0,0,1,8.1,8.1,7.9,7.9,0,0,1-2.3,5.6,7.9,7.9,0,0,0,3.8-6.8A8,8,0,0,0,179.7,45.4Z"/><path class="ebccd23c-3871-463c-8d3f-47a091999fb5" d="M179.9,62.3a8.8,8.8,0,1,1,8.8-8.8A8.7,8.7,0,0,1,179.9,62.3Zm0-16.1a7.3,7.3,0,1,0,7.3,7.3A7.3,7.3,0,0,0,179.9,46.2Z"/><rect class="b3dfd508-18a8-461a-827a-142f3c5e9f24" x="177.8" y="82.7" width="4.2" height="14.32"/><rect class="be146220-ea6e-4f09-a090-e2fcc43b90c1" x="177.8" y="82.7" width="1.6" height="14.32"/><path class="ebccd23c-3871-463c-8d3f-47a091999fb5" d="M182.7,97.8H177V81.9h5.7Zm-4.2-1.5h2.7V83.4h-2.7Z"/><rect class="ebccd23c-3871-463c-8d3f-47a091999fb5" x="32.6" y="53.5" width="1.5" height="10.18"/><polygon class="b3dfd508-18a8-461a-827a-142f3c5e9f24" points="33.7 63.9 33.1 63.9 32.1 65.2 32.1 82.8 34.6 82.8 34.6 65.2 33.7 63.9"/><polygon class="be146220-ea6e-4f09-a090-e2fcc43b90c1" points="33.8 64.1 33.7 63.9 33.1 63.9 32.1 65.2 32.1 82.8 33.1 82.8 33.1 65.2 33.8 64.1"/><polygon class="ebccd23c-3871-463c-8d3f-47a091999fb5" points="35.4 82.8 33.9 82.8 33.9 65.4 33.4 64.7 32.9 65.4 32.9 82.8 31.4 82.8 31.4 64.9 32.7 63.1 34.1 63.1 35.4 64.9 35.4 82.8"/><circle class="a088ae52-4538-418f-a1d8-d2a5cb532b94" cx="33.4" cy="53.5" r="8.1"/><path class="a2380efa-0b1c-4340-9a61-e6bc48dcd7a9" d="M33.2,45.4a8,8,0,0,0-5.8,2.5,7.7,7.7,0,0,1,4.2-1.3,8.1,8.1,0,0,1,8.1,8.1,7.9,7.9,0,0,1-2.3,5.6,7.9,7.9,0,0,0,3.8-6.8A8,8,0,0,0,33.2,45.4Z"/><path class="ebccd23c-3871-463c-8d3f-47a091999fb5" d="M33.4,62.3a8.8,8.8,0,1,1,8.8-8.8A8.7,8.7,0,0,1,33.4,62.3Zm0-16.1a7.3,7.3,0,1,0,7.3,7.3A7.3,7.3,0,0,0,33.4,46.2Z"/><rect class="b3dfd508-18a8-461a-827a-142f3c5e9f24" x="31.3" y="82.7" width="4.2" height="14.32"/><rect class="be146220-ea6e-4f09-a090-e2fcc43b90c1" x="31.3" y="82.7" width="1.6" height="14.32"/><path class="ebccd23c-3871-463c-8d3f-47a091999fb5" d="M36.2,97.8H30.5V81.9h5.7ZM32,96.3h2.7V83.4H32Z"/><rect class="ebccd23c-3871-463c-8d3f-47a091999fb5" x="19.5" y="96.3" width="2.7" height="1.5"/><rect class="ebccd23c-3871-463c-8d3f-47a091999fb5" x="189.5" y="96.3" width="6" height="1.5"/><rect class="ebccd23c-3871-463c-8d3f-47a091999fb5" x="24.1" y="96.3" width="163.8" height="1.5"/></g></g></svg>