<svg xmlns="http://www.w3.org/2000/svg" viewBox="0 0 206.5 102.2"><defs><style>.bf2be641-a845-4dd1-b1e3-fa66fed817b6{fill:#edf6fc;}.fb927e7f-c767-4c80-82e1-03917755d445{fill:#fff;}.a5efb401-f66f-407c-9462-8dfeb5367782{fill:#0686d8;}.ab6b1b67-68a1-43c1-a09b-05c3739c075f{fill:#9ecfef;}.b594cfe5-386c-42d7-ae4b-c685603e3984{opacity:0.3;}.bd30b89e-8324-4f8e-924e-fd10ebb8cc46{fill:#0565a2;}.fefbbbd7-8448-4902-8b21-902fe8925e0f{fill:#5fb0e5;}.e876089e-634d-49b8-8e73-52da9017207e{fill:#d2e9f7;}</style></defs><g id="ba78db50-eba2-4c07-9c32-6bfce4933f54" data-name="Ebene 2"><g id="ba91552a-2a0f-40a8-8737-716efe906b87" data-name="Digital Marketing"><path class="bf2be641-a845-4dd1-b1e3-fa66fed817b6" d="M26.8,16.2H193.1a8.7,8.7,0,0,1,8.8,8.7h0a8.7,8.7,0,0,1-8.8,8.8H158.4a6.5,6.5,0,0,0-6.6,6.6h0a6.5,6.5,0,0,0,6.6,6.6h22.2a6.7,6.7,0,0,1,6.8,6.7h0a6.8,6.8,0,0,1-6.6,6.8l-26.4.5a7.5,7.5,0,0,0-7.4,7.5h0a7.6,7.6,0,0,0,7.5,7.6h20.3a5.8,5.8,0,0,1,5.8,5.8h0a5.7,5.7,0,0,1-5.8,5.7h-7.4a9.8,9.8,0,0,0-9.8,9.8v4.2H37.9V97.7a11,11,0,0,0-10.8-11L8.8,86.5A8.9,8.9,0,0,1,0,77.6H0a8.9,8.9,0,0,1,8.9-8.9H26.6A15.9,15.9,0,0,1,42.5,52.8h6.1a8.5,8.5,0,0,0,8.5-8.5h0a8.5,8.5,0,0,0-8.5-8.5H26.8A9.8,9.8,0,0,1,17,26h0A9.8,9.8,0,0,1,26.8,16.2Z"/><path class="bf2be641-a845-4dd1-b1e3-fa66fed817b6" d="M201.2,75.9H189.1a5.3,5.3,0,0,1-5.3-5.3h0a5.2,5.2,0,0,1,5.3-5.2h12.1a5.2,5.2,0,0,1,5.3,5.2h0A5.3,5.3,0,0,1,201.2,75.9Z"/><rect class="fb927e7f-c767-4c80-82e1-03917755d445" x="31.4" y="45.7" width="44.5" height="55.72" rx="2"/><path class="a5efb401-f66f-407c-9462-8dfeb5367782" d="M32.2,101.3H30.7V48.8A3.8,3.8,0,0,1,34.6,45H59.8v1.5H34.6a2.3,2.3,0,0,0-2.4,2.3Z"/><path class="a5efb401-f66f-407c-9462-8dfeb5367782" d="M76.7,101.3H75.2V48.8a2.3,2.3,0,0,0-2.4-2.3H68.7V45h4.1a3.9,3.9,0,0,1,3.9,3.8Z"/><rect class="a5efb401-f66f-407c-9462-8dfeb5367782" x="48.5" y="49.1" width="10.4" height="1.5"/><path class="a5efb401-f66f-407c-9462-8dfeb5367782" d="M53.7,99.3a2.4,2.4,0,0,1-2.4-2.4,2.4,2.4,0,0,1,2.4-2.5,2.5,2.5,0,0,1,0,4.9Zm0-3.4a1,1,0,0,0-.9,1,.9.9,0,0,0,1.8,0A1,1,0,0,0,53.7,95.9Z"/><rect class="ab6b1b67-68a1-43c1-a09b-05c3739c075f" x="34.9" y="53.7" width="37.5" height="39.47"/><polygon class="fb927e7f-c767-4c80-82e1-03917755d445" points="58.9 74.1 49 68.3 49 79.8 58.9 74.1 49 68.3 49 79.8 58.9 74.1"/><g class="b594cfe5-386c-42d7-ae4b-c685603e3984"><path class="bd30b89e-8324-4f8e-924e-fd10ebb8cc46" d="M76.7,48.8A3.9,3.9,0,0,0,72.8,45H68.7v.7H59.8V45h-.1V87.4a2.8,2.8,0,0,0,2.8,2.8H76.7Z"/></g><path class="fefbbbd7-8448-4902-8b21-902fe8925e0f" d="M64.4,27.7h81.1a2,2,0,0,1,2,2V78.3a0,0,0,0,1,0,0H62.5a0,0,0,0,1,0,0V29.7A2,2,0,0,1,64.4,27.7Z"/><path class="a5efb401-f66f-407c-9462-8dfeb5367782" d="M148.3,79H61.7V29.7a2.8,2.8,0,0,1,2.7-2.8H73v1.5H64.4a1.3,1.3,0,0,0-1.2,1.3V77.5h83.6V29.7a1.3,1.3,0,0,0-1.2-1.3H80.4V26.9h65.2a2.8,2.8,0,0,1,2.7,2.8Z"/><rect class="a5efb401-f66f-407c-9462-8dfeb5367782" x="74.4" y="26.9" width="4.5" height="1.5"/><rect class="fb927e7f-c767-4c80-82e1-03917755d445" x="67.1" y="32.6" width="75.9" height="39.97"/><rect class="e876089e-634d-49b8-8e73-52da9017207e" x="92.2" y="86" width="25.6" height="15.17"/><rect class="ab6b1b67-68a1-43c1-a09b-05c3739c075f" x="92.2" y="86" width="25.6" height="7.59"/><path class="a5efb401-f66f-407c-9462-8dfeb5367782" d="M118.6,101.9H91.4V85.2h27.2Zm-25.7-1.5h24.2V86.7H92.9Z"/><path class="fb927e7f-c767-4c80-82e1-03917755d445" d="M62.5,76.4h85.1a0,0,0,0,1,0,0v9.5a2,2,0,0,1-2,2H64.5a2,2,0,0,1-2-2V76.4a0,0,0,0,1,0,0Z"/><path class="a5efb401-f66f-407c-9462-8dfeb5367782" d="M145.5,88.7h-81a2.8,2.8,0,0,1-2.8-2.8V75.7h86.6V85.9A2.8,2.8,0,0,1,145.5,88.7ZM63.2,77.2v8.7a1.3,1.3,0,0,0,1.3,1.3h81a1.3,1.3,0,0,0,1.3-1.3V77.2Z"/><rect class="a5efb401-f66f-407c-9462-8dfeb5367782" x="87.2" y="100.7" width="35.9" height="1.5"/><rect class="fefbbbd7-8448-4902-8b21-902fe8925e0f" x="69.9" y="35.8" width="40" height="23.9"/><polygon class="fb927e7f-c767-4c80-82e1-03917755d445" points="93.9 46.9 86 42.3 86 51.4 93.9 46.9"/><rect class="ab6b1b67-68a1-43c1-a09b-05c3739c075f" x="112.2" y="35.8" width="11.1" height="11.15"/><rect class="ab6b1b67-68a1-43c1-a09b-05c3739c075f" x="112.2" y="48.4" width="11.1" height="11.15"/><rect class="ab6b1b67-68a1-43c1-a09b-05c3739c075f" x="112.2" y="61.1" width="11.1" height="11.15"/><rect class="a5efb401-f66f-407c-9462-8dfeb5367782" x="71" y="61.3" width="14" height="1.5"/><rect class="a5efb401-f66f-407c-9462-8dfeb5367782" x="125.7" y="37.7" width="14" height="1.5"/><rect class="a5efb401-f66f-407c-9462-8dfeb5367782" x="125.7" y="41.6" width="14" height="1.5"/><rect class="a5efb401-f66f-407c-9462-8dfeb5367782" x="125.7" y="49.9" width="14" height="1.5"/><rect class="a5efb401-f66f-407c-9462-8dfeb5367782" x="125.7" y="53.8" width="14" height="1.5"/><rect class="a5efb401-f66f-407c-9462-8dfeb5367782" x="125.7" y="63.2" width="14" height="1.5"/><rect class="a5efb401-f66f-407c-9462-8dfeb5367782" x="125.7" y="67.1" width="14" height="1.5"/><rect class="a5efb401-f66f-407c-9462-8dfeb5367782" x="71" y="65.9" width="33" height="1.5"/><path class="a5efb401-f66f-407c-9462-8dfeb5367782" d="M56.1,3.6H51.8a.7.7,0,0,1-.7-.7.8.8,0,0,1,.7-.8h4.3a.9.9,0,0,1,.8.8A.8.8,0,0,1,56.1,3.6Z"/><path class="a5efb401-f66f-407c-9462-8dfeb5367782" d="M54,5.8a.9.9,0,0,1-.8-.8V.8A.8.8,0,0,1,54,0a.7.7,0,0,1,.7.8V5A.8.8,0,0,1,54,5.8Z"/><path class="a5efb401-f66f-407c-9462-8dfeb5367782" d="M32.3,41.3H28a.7.7,0,0,1-.7-.7.8.8,0,0,1,.7-.8h4.3a.8.8,0,0,1,.7.8A.7.7,0,0,1,32.3,41.3Z"/><path class="a5efb401-f66f-407c-9462-8dfeb5367782" d="M30.1,43.5a.8.8,0,0,1-.7-.8V38.5a.7.7,0,0,1,.7-.8.7.7,0,0,1,.8.8v4.2A.8.8,0,0,1,30.1,43.5Z"/><path class="a5efb401-f66f-407c-9462-8dfeb5367782" d="M192.5,33.8l-.6-.2a.8.8,0,0,1,0-1.1l3-3a.8.8,0,0,1,1.1,1.1l-3,3Z"/><path class="a5efb401-f66f-407c-9462-8dfeb5367782" d="M195.5,33.8l-.6-.2-3-3a.8.8,0,1,1,1.1-1.1l3,3a.8.8,0,0,1,0,1.1Z"/><path class="a5efb401-f66f-407c-9462-8dfeb5367782" d="M20.6,15.6a.5.5,0,0,1-.5-.3.7.7,0,0,1,0-1l3-3a.8.8,0,0,1,1.1,0,.7.7,0,0,1,0,1l-3.1,3A.5.5,0,0,1,20.6,15.6Z"/><path class="a5efb401-f66f-407c-9462-8dfeb5367782" d="M23.6,15.6a.5.5,0,0,1-.5-.3l-3-3a.7.7,0,0,1,1-1l3.1,3a.7.7,0,0,1,0,1Z"/><rect class="a5efb401-f66f-407c-9462-8dfeb5367782" x="171.5" y="57.8" width="17.4" height="1.5"/><rect class="a5efb401-f66f-407c-9462-8dfeb5367782" x="190.4" y="57.8" width="3.6" height="1.5"/><rect class="a5efb401-f66f-407c-9462-8dfeb5367782" x="80.7" y="9.1" width="17.4" height="1.5"/><rect class="a5efb401-f66f-407c-9462-8dfeb5367782" x="110.4" y="9.1" width="54.6" height="1.5"/><rect class="a5efb401-f66f-407c-9462-8dfeb5367782" x="5.2" y="39.3" width="19.8" height="1.5"/><rect class="a5efb401-f66f-407c-9462-8dfeb5367782" x="61.9" y="2.1" width="71.2" height="1.5"/><rect class="a5efb401-f66f-407c-9462-8dfeb5367782" x="99.6" y="9.1" width="3.6" height="1.5"/><path class="a5efb401-f66f-407c-9462-8dfeb5367782" d="M178.3,16.7a1.3,1.3,0,0,1-1.3,1.4,1.4,1.4,0,0,1-1.4-1.4,1.3,1.3,0,0,1,1.4-1.3A1.3,1.3,0,0,1,178.3,16.7Z"/><path class="a5efb401-f66f-407c-9462-8dfeb5367782" d="M17.8,51.1a1.3,1.3,0,0,1-1.3,1.3,1.3,1.3,0,0,1-1.4-1.3,1.4,1.4,0,0,1,1.4-1.4A1.3,1.3,0,0,1,17.8,51.1Z"/><path class="a5efb401-f66f-407c-9462-8dfeb5367782" d="M184.3,84.3a1.3,1.3,0,0,1-1.4,1.3,1.3,1.3,0,0,1-1.3-1.3,1.3,1.3,0,0,1,1.3-1.4A1.4,1.4,0,0,1,184.3,84.3Z"/><g class="b594cfe5-386c-42d7-ae4b-c685603e3984"><path class="bd30b89e-8324-4f8e-924e-fd10ebb8cc46" d="M148.3,85.9V55.8H136.8v.8h-1.1v-.8h-3.3v.8h-.9v-.8h-1.4a2.3,2.3,0,0,0-2.3,2.3V69.8l-.7.4-.4-.6-4.8,2.8a1.9,1.9,0,0,0-1.1,1.8V88.7h24.7A2.8,2.8,0,0,0,148.3,85.9Z"/></g><polygon class="fefbbbd7-8448-4902-8b21-902fe8925e0f" points="171.7 73.7 171.7 73.4 123.8 73.4 147.6 87.4 171.7 73.7"/><polygon class="e876089e-634d-49b8-8e73-52da9017207e" points="171.6 73.2 171.6 73.4 123.7 73.4 147.5 59.4 171.6 73.2"/><path class="fefbbbd7-8448-4902-8b21-902fe8925e0f" d="M132.4,56.6h31a1.9,1.9,0,0,1,1.9,1.9V90.2a0,0,0,0,1,0,0H130.6a0,0,0,0,1,0,0V58.4A1.9,1.9,0,0,1,132.4,56.6Z"/><rect class="a5efb401-f66f-407c-9462-8dfeb5367782" x="134.4" y="55.8" width="3.3" height="1.5"/><path class="a5efb401-f66f-407c-9462-8dfeb5367782" d="M166,91H129.8V58.1a2.3,2.3,0,0,1,2.3-2.3h1.4v1.5h-1.4a.9.9,0,0,0-.8.8V89.5h33.2V58.1a.8.8,0,0,0-.7-.8h-25V55.8h25a2.2,2.2,0,0,1,2.2,2.3Z"/><polygon class="bf2be641-a845-4dd1-b1e3-fa66fed817b6" points="123.8 73.4 123.6 73.4 123.6 101.2 147.6 87.4 123.8 73.4"/><polygon class="bf2be641-a845-4dd1-b1e3-fa66fed817b6" points="171.7 73.7 147.6 87.4 171.5 101.4 171.7 101.4 171.7 73.7"/><polygon class="e876089e-634d-49b8-8e73-52da9017207e" points="123.6 101.2 123.6 101.4 171.5 101.4 147.6 87.4 134 95.2 123.6 101.2"/><path class="a5efb401-f66f-407c-9462-8dfeb5367782" d="M170.9,102.2H124.4a1.6,1.6,0,0,1-1.6-1.6V74.2a1.9,1.9,0,0,1,1.1-1.8l4.8-2.8.7,1.3-4.8,2.8a.5.5,0,0,0-.3.5v26.4h46.6V74.2a.5.5,0,0,0-.3-.5L166,71l.7-1.3,4.7,2.7a2,2,0,0,1,1,1.8v26.4A1.6,1.6,0,0,1,170.9,102.2Z"/><path class="fb927e7f-c767-4c80-82e1-03917755d445" d="M142.9,76.7V64.9l10.2,5.9-10.2,5.9V64.9l10.2,5.9Z"/><rect class="a5efb401-f66f-407c-9462-8dfeb5367782" x="146.9" y="59.7" width="1.5" height="55.37" transform="translate(-2.5 170.6) rotate(-59.6)"/><rect class="a5efb401-f66f-407c-9462-8dfeb5367782" x="119.9" y="86.7" width="55.4" height="1.5" transform="translate(-23.9 86.6) rotate(-30.4)"/><rect class="a5efb401-f66f-407c-9462-8dfeb5367782" x="21.5" y="100.7" width="163.8" height="1.5"/><rect class="a5efb401-f66f-407c-9462-8dfeb5367782" x="17" y="100.7" width="2.7" height="1.5"/><rect class="a5efb401-f66f-407c-9462-8dfeb5367782" x="186.9" y="100.7" width="6" height="1.5"/><path class="fb927e7f-c767-4c80-82e1-03917755d445" d="M175.8,48.7a13.4,13.4,0,1,0-20.4-4.9l-4.8,7.4a.2.2,0,0,0,.3.3l8.3-2.9A13.4,13.4,0,0,0,175.8,48.7Z"/><path class="a5efb401-f66f-407c-9462-8dfeb5367782" d="M167.6,52.3a14.1,14.1,0,0,1-8.5-2.9l-7.9,2.8a1,1,0,0,1-1.2-1.4l4.6-7.1a14.2,14.2,0,0,1,18.2-18.8l-.6,1.4a12.9,12.9,0,0,0-12.4,1.8,12.7,12.7,0,0,0-3.7,15.4l.2.4-4.2,6.4,7.2-2.5.4.2a12.6,12.6,0,0,0,18.4-16.9l1.3-.8a14.2,14.2,0,0,1-11.8,22Z"/><path class="a5efb401-f66f-407c-9462-8dfeb5367782" d="M177.1,29.7l-.7-.7a11.8,11.8,0,0,0-2.5-1.9l.7-1.3a12.3,12.3,0,0,1,2.9,2.2l.7.7Z"/><circle class="fefbbbd7-8448-4902-8b21-902fe8925e0f" cx="167.5" cy="38.1" r="9.5"/><polygon class="fb927e7f-c767-4c80-82e1-03917755d445" points="170.7 37.9 164.3 34.2 164.3 41.6 170.7 37.9"/></g></g></svg>