<svg xmlns="http://www.w3.org/2000/svg" viewBox="0 0 209.7 94.5"><defs><style>.ea5ae541-65e0-4b72-86f1-657f0827885e{fill:#edf6fc;}.b826049b-41d8-47da-8102-810e280b0160{fill:#5fb0e5;}.f2df0add-7486-4c1d-bfa9-4d007ed42fcb{fill:#0686d8;}.fb925bb2-526b-45f8-8a42-c5eced89cbd3{fill:#fff;}.be004d52-965f-4703-a288-0a6a91e49dee{opacity:0.3;}.b709adca-63a3-443c-b82d-d2b43587fe3e{fill:#0565a2;}.f026b18c-de44-4e1e-bde1-b6218a0781ac{fill:#9ecfef;}.ad7e7454-b418-4e61-ad79-a36238ded2e2{fill:#d2e9f7;}</style></defs><g id="f37226cd-4512-4c8e-94c8-c22fe745c2c3" data-name="Ebene 2"><g id="a6b92722-e8ed-46d2-af75-16e5154d1c5c" data-name="Seo"><path class="ea5ae541-65e0-4b72-86f1-657f0827885e" d="M24.7,14.9l173.1.6a7.6,7.6,0,0,1,7.6,7.6h0a7.6,7.6,0,0,1-7.6,7.6H160.2a6.1,6.1,0,0,0-6.1,6.1h0a6,6,0,0,0,6.1,6h24.2a7.5,7.5,0,0,1,7.5,7.5h0a7.5,7.5,0,0,1-7.5,7.4H139.5v21h62.7a7.5,7.5,0,0,1,7.5,7.5h0a7.5,7.5,0,0,1-7.5,7.5H38.8a7.1,7.1,0,0,1-7.1-7.1h0a7.1,7.1,0,0,1,7.1-7.1H76v-11H9.2A9.2,9.2,0,0,1,0,59.3H0A9.3,9.3,0,0,1,9.2,50H64a5.9,5.9,0,0,0,6-5.9h0a6,6,0,0,0-6-6H55.9a9.8,9.8,0,0,1-9.8-9.8H24.7A6.7,6.7,0,0,1,18,21.6h0A6.7,6.7,0,0,1,24.7,14.9Z"/><rect class="b826049b-41d8-47da-8102-810e280b0160" x="101.2" y="35" width="77.4" height="55.66" rx="1"/><rect class="f2df0add-7486-4c1d-bfa9-4d007ed42fcb" x="110.1" y="34.2" width="4.3" height="1.5"/><path class="f2df0add-7486-4c1d-bfa9-4d007ed42fcb" d="M176.7,91.4H103.1a2.7,2.7,0,0,1-2.7-2.7V36.9a2.7,2.7,0,0,1,2.7-2.7h4.6v1.5h-4.6a1.2,1.2,0,0,0-1.2,1.2V88.7a1.2,1.2,0,0,0,1.2,1.2h73.6a1.2,1.2,0,0,0,1.2-1.2h1.5A2.7,2.7,0,0,1,176.7,91.4Z"/><path class="f2df0add-7486-4c1d-bfa9-4d007ed42fcb" d="M179.4,41.9h-1.5v-5a1.2,1.2,0,0,0-1.2-1.2H142.1V34.2h34.6a2.7,2.7,0,0,1,2.7,2.7Z"/><rect class="fb925bb2-526b-45f8-8a42-c5eced89cbd3" x="104.9" y="39.3" width="69.5" height="45.17"/><path class="fb925bb2-526b-45f8-8a42-c5eced89cbd3" d="M177.3,93.7H101.7A3.8,3.8,0,0,1,98,90.6l-.5-3.3h35l1.4,2h9.6l1.5-2h36.9l-.5,2.9A4.2,4.2,0,0,1,177.3,93.7Z"/><path class="f2df0add-7486-4c1d-bfa9-4d007ed42fcb" d="M177.3,94.5H101.7a4.4,4.4,0,0,1-4.4-3.8l-.6-3.2,1.5-.3.6,3.3a2.9,2.9,0,0,0,2.9,2.5h75.6Z"/><polygon class="f2df0add-7486-4c1d-bfa9-4d007ed42fcb" points="143.9 90 141.9 90 141.9 88.5 143.2 88.5 144.6 86.6 174.9 86.6 174.9 88.1 145.4 88.1 143.9 90"/><g class="be004d52-965f-4703-a288-0a6a91e49dee"><path class="b709adca-63a3-443c-b82d-d2b43587fe3e" d="M141.2,93.7h1.5V34.2h-.6V35H114.4v-.8h-4.3V35h-2.4v-.8h-4.6a2.7,2.7,0,0,0-2.7,2.7V87.3H97.5l-.8.2.6,3.2a4.2,4.2,0,0,0,1.9,3h42Z"/></g><path class="f026b18c-de44-4e1e-bde1-b6218a0781ac" d="M139.9,93.7V15.5a3.9,3.9,0,0,0-3.8-3.9H79.2a3.9,3.9,0,0,0-3.8,3.9V93.7Z"/><path class="fb925bb2-526b-45f8-8a42-c5eced89cbd3" d="M134.7,93.7V15.5c0-2.1-1.5-3.9-3.3-3.9H83.2c-1.8,0-3.3,1.8-3.3,3.9V93.7Z"/><path class="f026b18c-de44-4e1e-bde1-b6218a0781ac" d="M75.4,21.6V14.9a3.2,3.2,0,0,1,3.2-3.3h58.1a3.2,3.2,0,0,1,3.2,3.3v6.7Z"/><path class="f2df0add-7486-4c1d-bfa9-4d007ed42fcb" d="M76.1,47.9H74.6v-33a4,4,0,0,1,4-4h8.6v1.5H78.6a2.5,2.5,0,0,0-2.5,2.5Z"/><path class="f2df0add-7486-4c1d-bfa9-4d007ed42fcb" d="M140.7,93.8h-1.5V14.9a2.5,2.5,0,0,0-2.5-2.5H98.4V10.9h38.3a4,4,0,0,1,4,4Z"/><rect class="f2df0add-7486-4c1d-bfa9-4d007ed42fcb" x="90.3" y="10.9" width="4.4" height="1.5"/><rect class="f2df0add-7486-4c1d-bfa9-4d007ed42fcb" x="75.4" y="21" width="64.6" height="1.5"/><rect class="f2df0add-7486-4c1d-bfa9-4d007ed42fcb" x="82.8" y="16.4" width="1.5" height="1.5"/><rect class="f2df0add-7486-4c1d-bfa9-4d007ed42fcb" x="87.2" y="16.4" width="1.5" height="1.5"/><rect class="f2df0add-7486-4c1d-bfa9-4d007ed42fcb" x="91.5" y="16.4" width="1.5" height="1.5"/><rect class="f026b18c-de44-4e1e-bde1-b6218a0781ac" x="84" y="29.2" width="47.3" height="18.64"/><rect class="ad7e7454-b418-4e61-ad79-a36238ded2e2" x="84" y="59.7" width="14.4" height="18.64"/><rect class="ad7e7454-b418-4e61-ad79-a36238ded2e2" x="100.5" y="59.7" width="14.4" height="18.64"/><rect class="ad7e7454-b418-4e61-ad79-a36238ded2e2" x="116.9" y="59.7" width="14.4" height="18.64"/><rect class="f2df0add-7486-4c1d-bfa9-4d007ed42fcb" x="97.6" y="53" width="20.1" height="1.5"/><rect class="f2df0add-7486-4c1d-bfa9-4d007ed42fcb" x="178.6" y="71" width="1.5" height="5.77"/><path class="ad7e7454-b418-4e61-ad79-a36238ded2e2" d="M179.3,43.9a13.9,13.9,0,1,0,14,13.9A13.9,13.9,0,0,0,179.3,43.9Zm0,24.5a10.6,10.6,0,1,1,10.6-10.6A10.5,10.5,0,0,1,179.3,68.4Z"/><path class="f2df0add-7486-4c1d-bfa9-4d007ed42fcb" d="M179.3,72.5A14.7,14.7,0,1,1,194,57.8,14.7,14.7,0,0,1,179.3,72.5Zm0-27.8a13.2,13.2,0,1,0,13.2,13.1A13.1,13.1,0,0,0,179.3,44.7Z"/><path class="f2df0add-7486-4c1d-bfa9-4d007ed42fcb" d="M188.3,58.5h-1.5a8.8,8.8,0,0,0-8.8-8.8V48.2A10.3,10.3,0,0,1,188.3,58.5Z"/><rect class="f026b18c-de44-4e1e-bde1-b6218a0781ac" x="176.6" y="75.1" width="5.5" height="18.43"/><path class="f2df0add-7486-4c1d-bfa9-4d007ed42fcb" d="M180.7,94.3H178a2.2,2.2,0,0,1-2.2-2.2V74.4h7v9.7h-1.5V75.9h-4V92.1a.7.7,0,0,0,.7.7h2.7c.4,0,.6-.3.6-.7V89.5h1.5v2.6A2.1,2.1,0,0,1,180.7,94.3Z"/><rect class="f2df0add-7486-4c1d-bfa9-4d007ed42fcb" x="181.3" y="85.5" width="1.5" height="2.89"/><rect class="f2df0add-7486-4c1d-bfa9-4d007ed42fcb" x="176.5" y="78.3" width="5.8" height="1.5"/><rect class="f2df0add-7486-4c1d-bfa9-4d007ed42fcb" x="156.3" y="47.5" width="8.7" height="1.5"/><rect class="f2df0add-7486-4c1d-bfa9-4d007ed42fcb" x="156.3" y="52.3" width="6.9" height="1.5"/><rect class="f2df0add-7486-4c1d-bfa9-4d007ed42fcb" x="145.9" y="57.1" width="17.3" height="1.5"/><rect class="f2df0add-7486-4c1d-bfa9-4d007ed42fcb" x="145.8" y="61.8" width="17.4" height="1.5"/><rect class="f2df0add-7486-4c1d-bfa9-4d007ed42fcb" x="145.8" y="66.6" width="19.2" height="1.5"/><rect class="f2df0add-7486-4c1d-bfa9-4d007ed42fcb" x="145.8" y="71.4" width="25.3" height="1.5"/><path class="f2df0add-7486-4c1d-bfa9-4d007ed42fcb" d="M153,54.3l-.8-1.7h-3.4l-.8,1.7h-1.9l3.5-8.2h1.8l3.5,8.2Zm-2.5-5.7-1,2.4h2Z"/><path class="b826049b-41d8-47da-8102-810e280b0160" d="M108.8,81.6a4.5,4.5,0,0,1-.1-1.1v-.3a14.5,14.5,0,0,1,1-5.1,14.2,14.2,0,0,1,2.8-4.1c.1-.1.2-.1.2-.2l.7-.6,2.2,2.8-.3.2-.3.3a9.8,9.8,0,0,0-2,3,9.5,9.5,0,0,0-.8,3.7v.4a1.1,1.1,0,0,0,.1.5Z"/><path class="ad7e7454-b418-4e61-ad79-a36238ded2e2" d="M121.7,93.2a14.9,14.9,0,0,1-5.1-1,14.2,14.2,0,0,1-4.1-2.8,13.4,13.4,0,0,1-2.8-4.2l-.4-1.3,3.3-1a4.2,4.2,0,0,0,.4,1,9.2,9.2,0,0,0,5,5,9.5,9.5,0,0,0,7.4,0,9.8,9.8,0,0,0,3-2,8.3,8.3,0,0,0,2-3l3.3,1.3a13.4,13.4,0,0,1-2.8,4.2,14.2,14.2,0,0,1-4.1,2.8A14.5,14.5,0,0,1,121.7,93.2Z"/><path class="f026b18c-de44-4e1e-bde1-b6218a0781ac" d="M134.4,82.9l-3.4-.7a13.6,13.6,0,0,0,.2-2,9.5,9.5,0,0,0-.8-3.7,9.2,9.2,0,0,0-5-5,9.5,9.5,0,0,0-7.4,0h-.4l-.3.2-1.8-3,.9-.5h.2a13.8,13.8,0,0,1,10.2,0,13.4,13.4,0,0,1,6.9,6.9,14.5,14.5,0,0,1,1,5.1A12.4,12.4,0,0,1,134.4,82.9Z"/><path class="f2df0add-7486-4c1d-bfa9-4d007ed42fcb" d="M109.1,82.3l-.7-.2a1.2,1.2,0,0,1-.4-.8V80.2a13.4,13.4,0,0,1,2.2-7.5,16.2,16.2,0,0,1,1.8-2.3h.1l.5-.4a1.6,1.6,0,0,1,.9-.3,1.2,1.2,0,0,1,.8.4l1.6,2.2a1.1,1.1,0,0,1-.1,1.5l-.3.3a8.4,8.4,0,0,0-1.8,2.8,8,8,0,0,0-.7,3.4v1.5l-3.8.6Zm4.2-11h0l-.2.2a15.7,15.7,0,0,0-1.7,2.1,11.8,11.8,0,0,0-1.9,6.6v.6l2-.3v-.3a11,11,0,0,1,.8-4,8.7,8.7,0,0,1,2.2-3.2h.1Z"/><path class="f2df0add-7486-4c1d-bfa9-4d007ed42fcb" d="M121.7,93.9a12,12,0,0,1-5.3-1.1,13.1,13.1,0,0,1-7.3-7.3c-.2-.3-.3-.7-.5-1a2.8,2.8,0,0,1,.1-.9,1.8,1.8,0,0,1,.7-.5l2.7-.8a1,1,0,0,1,1.3.7l.3.6a8.4,8.4,0,0,0,1.8,2.8,8.2,8.2,0,0,0,4.4,2.3,7.3,7.3,0,0,0,3.6,0,8.2,8.2,0,0,0,4.4-2.3,10.1,10.1,0,0,0,1.7-2.5,1.2,1.2,0,0,1,1.5-.6l2.5,1.1a1.2,1.2,0,0,1,.6.6,1.4,1.4,0,0,1,0,.9,13.8,13.8,0,0,1-2.8,4,10.9,10.9,0,0,1-4.4,2.9A11.7,11.7,0,0,1,121.7,93.9Zm-11.5-9.5a1.4,1.4,0,0,1,.2.6,11,11,0,0,0,2.7,3.8,12.6,12.6,0,0,0,3.8,2.7,13.3,13.3,0,0,0,9.6,0,12.6,12.6,0,0,0,3.8-2.7,10.8,10.8,0,0,0,2.4-3.2l-1.9-.7a9.2,9.2,0,0,1-1.9,2.5,10.1,10.1,0,0,1-14.4,0,8.7,8.7,0,0,1-2.2-3.2c-.1-.1-.1-.3-.2-.4Z"/><path class="f2df0add-7486-4c1d-bfa9-4d007ed42fcb" d="M134.1,83.6h-.2l-2.7-.5a1.2,1.2,0,0,1-.9-1.3,7.6,7.6,0,0,0,.1-1.5,8,8,0,0,0-.7-3.4,7.8,7.8,0,0,0-4.6-4.6,8.1,8.1,0,0,0-6.8,0h-.4a1,1,0,0,1-1.4-.4L115,69.5a1.4,1.4,0,0,1-.1-.9,1.3,1.3,0,0,1,.6-.7l.6-.2h.2a13.4,13.4,0,0,1,5.1-1.1V68a11.4,11.4,0,0,0-4.7,1h-.3l1.1,1.7h.1a10.1,10.1,0,0,1,8,0,10.7,10.7,0,0,1,5.4,5.4,9.2,9.2,0,0,1,.8,4,6.6,6.6,0,0,1-.1,1.4l2,.4a10.9,10.9,0,0,0,.1-1.8,12.8,12.8,0,0,0-.9-4.8,12,12,0,0,0-6.5-6.5l.5-1.4a12.3,12.3,0,0,1,4.4,3,12.8,12.8,0,0,1,3,4.3,14,14,0,0,1,1,5.4,9.7,9.7,0,0,1-.2,2.4,1,1,0,0,1-.5.8Z"/><path class="f2df0add-7486-4c1d-bfa9-4d007ed42fcb" d="M125.3,68.5l-1.5-.4.3-1.4,1.7.4Z"/><rect class="ad7e7454-b418-4e61-ad79-a36238ded2e2" x="115.6" y="79.8" width="2.7" height="5.24"/><rect class="ad7e7454-b418-4e61-ad79-a36238ded2e2" x="120.1" y="77.8" width="2.7" height="7.31"/><rect class="ad7e7454-b418-4e61-ad79-a36238ded2e2" x="124.7" y="74.7" width="2.7" height="10.33"/><path class="f2df0add-7486-4c1d-bfa9-4d007ed42fcb" d="M119,85.8h-4.2V79.1H119Zm-2.7-1.5h1.2V80.6h-1.2Z"/><path class="f2df0add-7486-4c1d-bfa9-4d007ed42fcb" d="M123.5,85.8h-4.1V77h4.1Zm-2.6-1.5H122V78.5h-1.1Z"/><path class="f2df0add-7486-4c1d-bfa9-4d007ed42fcb" d="M128.1,85.8h-4.2V74h4.2Zm-2.7-1.5h1.2V75.5h-1.2Z"/><g class="be004d52-965f-4703-a288-0a6a91e49dee"><path class="b709adca-63a3-443c-b82d-d2b43587fe3e" d="M89.5,93.7h.7a19.7,19.7,0,0,0-3.4-11.2H89v.7h.9a3.1,3.1,0,0,0,3.2-3.1V52.4a3.1,3.1,0,0,0-3.2-3.1H82.8V50H80.1v-.7H75.4V93.7H89.5Z"/></g><rect class="fb925bb2-526b-45f8-8a42-c5eced89cbd3" x="45.5" y="50" width="44.8" height="32.47" rx="2"/><path class="ad7e7454-b418-4e61-ad79-a36238ded2e2" d="M45.5,56.9V52.3A2.3,2.3,0,0,1,47.8,50H88.1a2.2,2.2,0,0,1,2.2,2.3v4.6Z"/><rect class="f2df0add-7486-4c1d-bfa9-4d007ed42fcb" x="45.5" y="56.3" width="44.8" height="1.5"/><rect class="f2df0add-7486-4c1d-bfa9-4d007ed42fcb" x="50.7" y="53.1" width="1.8" height="1.5"/><rect class="f2df0add-7486-4c1d-bfa9-4d007ed42fcb" x="54.8" y="53.1" width="1.8" height="1.5"/><rect class="f2df0add-7486-4c1d-bfa9-4d007ed42fcb" x="59" y="53.1" width="1.8" height="1.5"/><path class="f2df0add-7486-4c1d-bfa9-4d007ed42fcb" d="M87.9,83.2H87V81.7h.9a1.7,1.7,0,0,0,1.7-1.6V52.4a1.7,1.7,0,0,0-1.7-1.6H80.8V49.3h7.1a3.1,3.1,0,0,1,3.2,3.1V80.1A3.1,3.1,0,0,1,87.9,83.2Z"/><rect class="f2df0add-7486-4c1d-bfa9-4d007ed42fcb" x="72.5" y="49.3" width="5.7" height="1.5"/><path class="f2df0add-7486-4c1d-bfa9-4d007ed42fcb" d="M48.6,83.2h-.7a3.1,3.1,0,0,1-3.1-3.1V52.4a3.1,3.1,0,0,1,3.1-3.1H71.4v1.5H47.9a1.6,1.6,0,0,0-1.6,1.6V80.1a1.6,1.6,0,0,0,1.6,1.6h.7Z"/><path class="b826049b-41d8-47da-8102-810e280b0160" d="M87.5,93.7a19.6,19.6,0,0,0-39.1,0Z"/><path class="f2df0add-7486-4c1d-bfa9-4d007ed42fcb" d="M88.2,93.7H86.7a18.8,18.8,0,1,0-37.5,0H47.7a20.3,20.3,0,1,1,40.5,0Z"/><path class="ad7e7454-b418-4e61-ad79-a36238ded2e2" d="M84.5,93.7a16.6,16.6,0,0,0-33.1,0Z"/><path class="fb925bb2-526b-45f8-8a42-c5eced89cbd3" d="M77,93.7a9,9,0,1,0-18,0Z"/><path class="b826049b-41d8-47da-8102-810e280b0160" d="M70,93.7a2,2,0,0,0-2-2,2,2,0,0,0-2.1,2Z"/><path class="f2df0add-7486-4c1d-bfa9-4d007ed42fcb" d="M85.3,93.7H83.8a15.8,15.8,0,0,0-31.6,0H50.7a17.3,17.3,0,0,1,34.6,0Z"/><rect class="f2df0add-7486-4c1d-bfa9-4d007ed42fcb" x="66.4" y="77.8" width="3.2" height="1.5" transform="translate(-11.4 145.5) rotate(-89.3)"/><rect class="f2df0add-7486-4c1d-bfa9-4d007ed42fcb" x="73.3" y="79.8" width="3" height="1.5" transform="translate(-32.6 103.7) rotate(-59.3)"/><rect class="f2df0add-7486-4c1d-bfa9-4d007ed42fcb" x="79.2" y="85.5" width="3.3" height="1.5" transform="translate(-31.9 50.5) rotate(-29.3)"/><rect class="f2df0add-7486-4c1d-bfa9-4d007ed42fcb" x="54.3" y="84.6" width="1.5" height="3.32" transform="translate(-47.2 89.4) rotate(-59.2)"/><rect class="f2df0add-7486-4c1d-bfa9-4d007ed42fcb" x="60.4" y="79" width="1.5" height="3.05" transform="translate(-31.5 40.1) rotate(-29.2)"/><polygon class="b826049b-41d8-47da-8102-810e280b0160" points="68 92.2 75.5 85.3 75.9 85.7 69.1 93.2 68 92.2"/><rect class="f2df0add-7486-4c1d-bfa9-4d007ed42fcb" x="67.2" y="70.6" width="1.5" height="3.62"/><rect class="b826049b-41d8-47da-8102-810e280b0160" x="64" y="68.2" width="7.9" height="3.91" rx="0.8"/><path class="f2df0add-7486-4c1d-bfa9-4d007ed42fcb" d="M71.1,72.8H64.8a1.5,1.5,0,0,1-1.6-1.5V69a1.6,1.6,0,0,1,1.6-1.6h6.3A1.6,1.6,0,0,1,72.6,69v2.3A1.5,1.5,0,0,1,71.1,72.8Zm-6.3-3.9v2.4h6.4V69Z"/><rect class="f2df0add-7486-4c1d-bfa9-4d007ed42fcb" x="77.8" y="74.8" width="2.8" height="1.5" transform="translate(-25.9 106.3) rotate(-60)"/><rect class="b826049b-41d8-47da-8102-810e280b0160" x="77" y="72.6" width="6.1" height="3" rx="0.8" transform="matrix(0.87, 0.5, -0.5, 0.87, 47.77, -30.08)"/><path class="f2df0add-7486-4c1d-bfa9-4d007ed42fcb" d="M81.6,77.3a1.2,1.2,0,0,1-.8-.2l-3.9-2.2a1.5,1.5,0,0,1-.5-2.1l.7-1.2a1.3,1.3,0,0,1,.9-.7,1.3,1.3,0,0,1,1.2.1l3.9,2.2a1.6,1.6,0,0,1,.5,2.2l-.7,1.2A1.5,1.5,0,0,1,81.6,77.3Zm0-1.5h0l.7-1.2-3.9-2.3-.7,1.2Z"/><rect class="f2df0add-7486-4c1d-bfa9-4d007ed42fcb" x="55.7" y="74.2" width="1.5" height="2.78" transform="matrix(0.87, -0.5, 0.5, 0.87, -30.23, 38.38)"/><rect class="b826049b-41d8-47da-8102-810e280b0160" x="52.6" y="72.6" width="6.1" height="3" rx="0.8" transform="translate(140.8 110.4) rotate(150)"/><path class="f2df0add-7486-4c1d-bfa9-4d007ed42fcb" d="M54,77.3h-.4a1.6,1.6,0,0,1-.9-.7L52,75.4a1.7,1.7,0,0,1-.2-1.2,1.9,1.9,0,0,1,.8-1L56.4,71a1.6,1.6,0,0,1,2.2.6l.7,1.2a1.6,1.6,0,0,1,.1,1.2,1.6,1.6,0,0,1-.7.9l-3.9,2.2A1.1,1.1,0,0,1,54,77.3Zm3.3-5-4,2.2.7,1.3h.1l3.8-2.2Z"/><rect class="f2df0add-7486-4c1d-bfa9-4d007ed42fcb" x="31.4" y="93" width="163.8" height="1.5"/><rect class="f2df0add-7486-4c1d-bfa9-4d007ed42fcb" x="26.9" y="93" width="2.7" height="1.5"/><rect class="f2df0add-7486-4c1d-bfa9-4d007ed42fcb" x="196.8" y="93" width="6" height="1.5"/><path class="f2df0add-7486-4c1d-bfa9-4d007ed42fcb" d="M157.4,15h-4.3a.7.7,0,0,1-.7-.7.8.8,0,0,1,.7-.8h4.3a.8.8,0,0,1,.7.8A.7.7,0,0,1,157.4,15Z"/><path class="f2df0add-7486-4c1d-bfa9-4d007ed42fcb" d="M155.3,17.2a.8.8,0,0,1-.8-.8V12.1a.7.7,0,0,1,.8-.7.7.7,0,0,1,.7.7v4.3A.8.8,0,0,1,155.3,17.2Z"/><path class="f2df0add-7486-4c1d-bfa9-4d007ed42fcb" d="M29,43.5H24.7a.7.7,0,0,1-.7-.7.8.8,0,0,1,.7-.8H29a.9.9,0,0,1,.8.8A.8.8,0,0,1,29,43.5Z"/><path class="f2df0add-7486-4c1d-bfa9-4d007ed42fcb" d="M26.9,45.7a.9.9,0,0,1-.8-.8V40.6a.8.8,0,0,1,.8-.7.7.7,0,0,1,.7.7v4.3A.8.8,0,0,1,26.9,45.7Z"/><path class="f2df0add-7486-4c1d-bfa9-4d007ed42fcb" d="M61.1,7.1c-.2,0-.4,0-.5-.2a.7.7,0,0,1,0-1l3-3.1a.8.8,0,1,1,1.1,1.1l-3,3A.7.7,0,0,1,61.1,7.1Z"/><path class="f2df0add-7486-4c1d-bfa9-4d007ed42fcb" d="M64.2,7.1a.7.7,0,0,1-.6-.2l-3-3a.8.8,0,0,1,1.1-1.1l3,3.1a.7.7,0,0,1,0,1A.6.6,0,0,1,64.2,7.1Z"/><path class="f2df0add-7486-4c1d-bfa9-4d007ed42fcb" d="M198.3,70.5c-.2,0-.3-.1-.5-.3a.7.7,0,0,1,0-1l3-3.1a1.1,1.1,0,0,1,1.1,0,.8.8,0,0,1,0,1.1l-3,3Z"/><path class="f2df0add-7486-4c1d-bfa9-4d007ed42fcb" d="M201.4,70.5a.9.9,0,0,1-.6-.3l-3-3a.8.8,0,0,1,0-1.1,1.1,1.1,0,0,1,1.1,0l3,3.1a.7.7,0,0,1,0,1C201.7,70.4,201.6,70.5,201.4,70.5Z"/><rect class="f2df0add-7486-4c1d-bfa9-4d007ed42fcb" x="71.3" y="4.1" width="17.4" height="1.5"/><rect class="f2df0add-7486-4c1d-bfa9-4d007ed42fcb" x="85.1" width="46.2" height="1.5"/><rect class="f2df0add-7486-4c1d-bfa9-4d007ed42fcb" x="20.3" y="73.6" width="21.7" height="1.5"/><rect class="f2df0add-7486-4c1d-bfa9-4d007ed42fcb" x="180.4" y="34.2" width="17.5" height="1.5"/><rect class="f2df0add-7486-4c1d-bfa9-4d007ed42fcb" x="199.9" y="34.2" width="3" height="1.5"/><rect class="f2df0add-7486-4c1d-bfa9-4d007ed42fcb" x="90.2" y="4.1" width="3.6" height="1.5"/><rect class="f2df0add-7486-4c1d-bfa9-4d007ed42fcb" x="34.3" y="42" width="17.4" height="1.5"/><rect class="f2df0add-7486-4c1d-bfa9-4d007ed42fcb" x="53.2" y="42" width="3.6" height="1.5"/><path class="f2df0add-7486-4c1d-bfa9-4d007ed42fcb" d="M145.9,6.6a1.1,1.1,0,0,1-2.2,0,1.1,1.1,0,0,1,2.2,0Z"/><path class="f2df0add-7486-4c1d-bfa9-4d007ed42fcb" d="M41.1,17.2A1.1,1.1,0,1,1,40,16.1,1.1,1.1,0,0,1,41.1,17.2Z"/><path class="f2df0add-7486-4c1d-bfa9-4d007ed42fcb" d="M166.5,29.2a1.1,1.1,0,0,1-1.1,1.1,1,1,0,0,1-1-1.1.9.9,0,0,1,1-1A1,1,0,0,1,166.5,29.2Z"/><path class="f2df0add-7486-4c1d-bfa9-4d007ed42fcb" d="M198.9,49a1,1,0,0,1-1,1,1,1,0,0,1-1.1-1,1.1,1.1,0,0,1,1.1-1.1A1.1,1.1,0,0,1,198.9,49Z"/></g></g></svg>