<svg xmlns="http://www.w3.org/2000/svg" viewBox="0 0 210.8 94.5"><defs><style>.bdfe07cd-733d-47b8-97ac-8c2050859d98{fill:#d8ecf9;}.bacb59b6-ce88-433e-907c-d0285dddc2f9{fill:#0686d8;}.ac9e521f-5e1a-4097-b5de-2136ee12f807{fill:#5fb0e5;}.bfbc2269-0fca-48c7-9f75-fc5b0871a7f6{fill:#fff;}.ffd9eaac-52f4-4db5-9b49-b609e3aa6154{fill:#d2e9f7;}.a58257c1-1c5e-4db3-a2fc-3fc852f90ca3{fill:#9ecfef;}.f5144bfa-0069-4f88-822e-9d8b02f0a839{opacity:0.3;}.be170f6d-cbc2-4d09-9b9a-48031d3b3328{fill:#0565a2;}.a40cdd92-699f-43ee-a2a6-28fcaf778477{fill:#edf6fc;}</style></defs><g id="fe7df6c9-bca1-46ac-9dd5-e9bfa7ce9ac6" data-name="Ebene 2"><g id="ab48528c-e376-4b77-bc32-a178fa753f02" data-name="web design"><path class="bdfe07cd-733d-47b8-97ac-8c2050859d98" d="M17.1,18.4h0a5.7,5.7,0,0,0,5.8,5.7H49a5.7,5.7,0,0,1,5.7,5.7h0A5.6,5.6,0,0,1,49,35.5H35a6.2,6.2,0,0,0-6.2,6.2h0A6.2,6.2,0,0,0,35,47.9l51.3.2.9,14.7L6.9,62.4A6.8,6.8,0,0,0,0,69.2H0a6.9,6.9,0,0,0,6.9,6.9H24.6A6.9,6.9,0,0,1,31.5,83V93.7l154.3-.2V86a7.7,7.7,0,0,0-7.7-7.7l-23.6-.2V59.8h49.3a7,7,0,0,0,7-7h0a7,7,0,0,0-7-7H180.6a10.9,10.9,0,0,0-10.9-10.9H154.9V24.1h41.3a5.7,5.7,0,0,0,5.8-5.7h0a5.8,5.8,0,0,0-5.8-5.8H22.9A5.8,5.8,0,0,0,17.1,18.4Z"/><path class="bacb59b6-ce88-433e-907c-d0285dddc2f9" d="M25.9,32.6H21.6a.9.9,0,0,1-.8-.8.8.8,0,0,1,.8-.7h4.3a.7.7,0,0,1,.7.7A.8.8,0,0,1,25.9,32.6Z"/><path class="bacb59b6-ce88-433e-907c-d0285dddc2f9" d="M23.7,34.7A.7.7,0,0,1,23,34V29.7a.8.8,0,0,1,.7-.8.9.9,0,0,1,.8.8V34A.8.8,0,0,1,23.7,34.7Z"/><path class="bacb59b6-ce88-433e-907c-d0285dddc2f9" d="M155.7,3.6h-4.2a.7.7,0,0,1-.8-.7.8.8,0,0,1,.8-.8h4.2a.9.9,0,0,1,.8.8A.8.8,0,0,1,155.7,3.6Z"/><path class="bacb59b6-ce88-433e-907c-d0285dddc2f9" d="M153.6,5.8a.9.9,0,0,1-.8-.8V.8a.8.8,0,0,1,.8-.8.7.7,0,0,1,.7.8V5A.8.8,0,0,1,153.6,5.8Z"/><path class="bacb59b6-ce88-433e-907c-d0285dddc2f9" d="M102.8,14.8c-.2,0-.4,0-.5-.2a.7.7,0,0,1,0-1l3-3.1a.8.8,0,0,1,1.1,1.1l-3,3A.7.7,0,0,1,102.8,14.8Z"/><path class="bacb59b6-ce88-433e-907c-d0285dddc2f9" d="M105.8,14.8a.6.6,0,0,1-.5-.2l-3-3a.8.8,0,1,1,1.1-1.1l3,3.1a.7.7,0,0,1,0,1A.7.7,0,0,1,105.8,14.8Z"/><path class="bacb59b6-ce88-433e-907c-d0285dddc2f9" d="M201.9,40.5a.7.7,0,0,1-.6-.2.9.9,0,0,1,0-1l3.1-3.1a.7.7,0,0,1,1,0,.8.8,0,0,1,0,1.1l-3,3C202.3,40.5,202.1,40.5,201.9,40.5Z"/><path class="bacb59b6-ce88-433e-907c-d0285dddc2f9" d="M204.9,40.5c-.2,0-.4,0-.5-.2l-3.1-3a1.1,1.1,0,0,1,0-1.1.8.8,0,0,1,1.1,0l3,3.1a.7.7,0,0,1,0,1C205.3,40.5,205.1,40.5,204.9,40.5Z"/><rect class="bacb59b6-ce88-433e-907c-d0285dddc2f9" x="117.7" y="11.8" width="21.8" height="1.5"/><rect class="bacb59b6-ce88-433e-907c-d0285dddc2f9" x="43.8" y="11.8" width="21.8" height="1.5"/><rect class="bacb59b6-ce88-433e-907c-d0285dddc2f9" x="72.9" y="5.6" width="40.8" height="1.5"/><rect class="bacb59b6-ce88-433e-907c-d0285dddc2f9" x="6.2" y="48.4" width="25.6" height="1.5"/><rect class="bacb59b6-ce88-433e-907c-d0285dddc2f9" x="177.9" y="64.9" width="19.1" height="1.5"/><rect class="bacb59b6-ce88-433e-907c-d0285dddc2f9" x="199.3" y="64.9" width="2.6" height="1.5"/><rect class="bacb59b6-ce88-433e-907c-d0285dddc2f9" x="111.8" y="11.8" width="3.9" height="1.5"/><path class="bacb59b6-ce88-433e-907c-d0285dddc2f9" d="M190.4,32.9a1,1,0,0,1-1,1.1,1.1,1.1,0,1,1,0-2.2A1,1,0,0,1,190.4,32.9Z"/><path class="bacb59b6-ce88-433e-907c-d0285dddc2f9" d="M66.1,20.1a1.5,1.5,0,0,1-1.5,1.5A1.6,1.6,0,0,1,63,20.1a1.6,1.6,0,0,1,1.6-1.6A1.6,1.6,0,0,1,66.1,20.1Z"/><path class="bacb59b6-ce88-433e-907c-d0285dddc2f9" d="M26.6,57.7a1.1,1.1,0,0,1-1.1,1.1,1.1,1.1,0,0,1-1-1.1,1,1,0,0,1,1-1A1,1,0,0,1,26.6,57.7Z"/><path class="ac9e521f-5e1a-4097-b5de-2136ee12f807" d="M79.4,20h81.3a2,2,0,0,1,2,2V70.6a0,0,0,0,1,0,0H77.5a0,0,0,0,1,0,0V21.9A2,2,0,0,1,79.4,20Z"/><rect class="bacb59b6-ce88-433e-907c-d0285dddc2f9" x="93.3" y="19.2" width="52.7" height="1.5"/><rect class="bacb59b6-ce88-433e-907c-d0285dddc2f9" x="88.4" y="19.2" width="3.6" height="1.5"/><path class="bacb59b6-ce88-433e-907c-d0285dddc2f9" d="M162.7,71.4h-86V24.3a5.1,5.1,0,0,1,5.1-5.1h4.3v1.5H81.8a3.6,3.6,0,0,0-3.6,3.6V69.9h84.5Z"/><rect class="bfbc2269-0fca-48c7-9f75-fc5b0871a7f6" x="82.1" y="24.9" width="76.1" height="40.03"/><rect class="bfbc2269-0fca-48c7-9f75-fc5b0871a7f6" x="107.2" y="78.3" width="25.7" height="15.2"/><rect class="ffd9eaac-52f4-4db5-9b49-b609e3aa6154" x="107.2" y="78.3" width="25.7" height="7.6"/><polygon class="bacb59b6-ce88-433e-907c-d0285dddc2f9" points="133.7 92.9 132.2 92.9 132.2 79.1 108 79.1 108 92.9 106.5 92.9 106.5 77.6 133.7 77.6 133.7 92.9"/><path class="bfbc2269-0fca-48c7-9f75-fc5b0871a7f6" d="M77.5,68.8h85.2a0,0,0,0,1,0,0v5.9a5.6,5.6,0,0,1-5.6,5.6H83a5.6,5.6,0,0,1-5.6-5.6V68.8A0,0,0,0,1,77.5,68.8Z"/><path class="bacb59b6-ce88-433e-907c-d0285dddc2f9" d="M157.9,81h-76a5.1,5.1,0,0,1-5.2-5.1V68h81.2v1.5H78.2v6.4a3.7,3.7,0,0,0,3.7,3.6h76Z"/><rect class="a58257c1-1c5e-4db3-a2fc-3fc852f90ca3" x="87.5" y="27.7" width="65.6" height="14.24"/><rect class="ffd9eaac-52f4-4db5-9b49-b609e3aa6154" x="111.5" y="44.1" width="17.4" height="18.36"/><rect class="ffd9eaac-52f4-4db5-9b49-b609e3aa6154" x="135.6" y="44.1" width="17.4" height="18.36"/><rect class="bacb59b6-ce88-433e-907c-d0285dddc2f9" x="161.7" y="36.3" width="1.5" height="8.96"/><g class="f5144bfa-0069-4f88-822e-9d8b02f0a839"><path class="be170f6d-cbc2-4d09-9b9a-48031d3b3328" d="M110.8,43.6a2.5,2.5,0,0,0-2.5-2.4H76.7V75.9A5.1,5.1,0,0,0,81.9,81h24.6V92.9h.7v.6h4.1a4.2,4.2,0,0,0,1.9-3l.6-3.3h-3Z"/></g><rect class="ac9e521f-5e1a-4097-b5de-2136ee12f807" x="40" y="41.9" width="68" height="48.89" rx="1"/><path class="bacb59b6-ce88-433e-907c-d0285dddc2f9" d="M41.7,91.6a2.5,2.5,0,0,1-2.5-2.5V60.4h1.5V89.1a1.1,1.1,0,0,0,1,1Z"/><path class="bacb59b6-ce88-433e-907c-d0285dddc2f9" d="M108.8,88.1h-1.5V43.6a1,1,0,0,0-1-.9H70.5V41.2h35.8a2.5,2.5,0,0,1,2.5,2.4Z"/><rect class="bacb59b6-ce88-433e-907c-d0285dddc2f9" x="43.3" y="45.8" width="61" height="39.68"/><path class="bfbc2269-0fca-48c7-9f75-fc5b0871a7f6" d="M106.8,93.5H40.4a3.2,3.2,0,0,1-3.2-2.7l-.5-2.9H67.5l1.2,1.7h8.5l1.3-1.7h32.4l-.4,2.5A3.8,3.8,0,0,1,106.8,93.5Z"/><path class="bacb59b6-ce88-433e-907c-d0285dddc2f9" d="M106.8,94.3H40.4a3.9,3.9,0,0,1-3.9-3.4l-.6-3.7h32l1.2,1.7h7.7l1.3-1.7h33.7l-.6,3.3A4.4,4.4,0,0,1,106.8,94.3ZM37.6,88.7l.3,2a2.6,2.6,0,0,0,2.5,2.1h66.4a2.9,2.9,0,0,0,2.9-2.5l.3-1.6H78.8l-1.2,1.7H68.3l-1.2-1.7Z"/><rect class="bfbc2269-0fca-48c7-9f75-fc5b0871a7f6" x="51.3" y="49.7" width="6.8" height="0.9"/><rect class="bfbc2269-0fca-48c7-9f75-fc5b0871a7f6" x="54.7" y="52.8" width="4.7" height="0.9"/><rect class="bfbc2269-0fca-48c7-9f75-fc5b0871a7f6" x="69.9" y="52.8" width="32.9" height="0.9"/><rect class="bfbc2269-0fca-48c7-9f75-fc5b0871a7f6" x="62.7" y="52.8" width="5.3" height="0.9" transform="translate(130.7 106.5) rotate(180)"/><rect class="bfbc2269-0fca-48c7-9f75-fc5b0871a7f6" x="56.3" y="55.3" width="9.4" height="0.9"/><rect class="bfbc2269-0fca-48c7-9f75-fc5b0871a7f6" x="60.1" y="58.9" width="11.9" height="0.9"/><rect class="bfbc2269-0fca-48c7-9f75-fc5b0871a7f6" x="51.3" y="62.3" width="13" height="0.9"/><rect class="bfbc2269-0fca-48c7-9f75-fc5b0871a7f6" x="65.7" y="62.3" width="9.4" height="0.9" transform="translate(140.9 125.6) rotate(180)"/><rect class="bfbc2269-0fca-48c7-9f75-fc5b0871a7f6" x="54.7" y="65.7" width="17.5" height="0.9"/><rect class="bfbc2269-0fca-48c7-9f75-fc5b0871a7f6" x="79.3" y="65.7" width="11.6" height="0.9" transform="translate(170.3 132.3) rotate(180)"/><rect class="bfbc2269-0fca-48c7-9f75-fc5b0871a7f6" x="72.9" y="65.7" width="5.5" height="0.9"/><rect class="bfbc2269-0fca-48c7-9f75-fc5b0871a7f6" x="60.5" y="69.1" width="15.3" height="0.9"/><rect class="bfbc2269-0fca-48c7-9f75-fc5b0871a7f6" x="56.3" y="69.1" width="3.2" height="0.9" transform="translate(115.9 139.1) rotate(180)"/><rect class="bfbc2269-0fca-48c7-9f75-fc5b0871a7f6" x="51.3" y="71.6" width="10.4" height="0.9"/><rect class="bfbc2269-0fca-48c7-9f75-fc5b0871a7f6" x="62.5" y="71.6" width="3.6" height="0.9"/><rect class="bfbc2269-0fca-48c7-9f75-fc5b0871a7f6" x="67.1" y="71.6" width="17.1" height="0.9"/><rect class="bfbc2269-0fca-48c7-9f75-fc5b0871a7f6" x="85.5" y="71.6" width="15.4" height="0.9" transform="translate(186.5 144.1) rotate(180)"/><rect class="bfbc2269-0fca-48c7-9f75-fc5b0871a7f6" x="54.7" y="75" width="5.4" height="0.9"/><rect class="bfbc2269-0fca-48c7-9f75-fc5b0871a7f6" x="61.7" y="75" width="12.8" height="0.9" transform="translate(136.3 150.9) rotate(180)"/><rect class="bfbc2269-0fca-48c7-9f75-fc5b0871a7f6" x="57.6" y="78.4" width="10.4" height="0.9"/><rect class="bfbc2269-0fca-48c7-9f75-fc5b0871a7f6" x="70.3" y="78.4" width="10.4" height="0.9"/><rect class="bfbc2269-0fca-48c7-9f75-fc5b0871a7f6" x="82.3" y="78.4" width="9.8" height="0.9"/><rect class="bfbc2269-0fca-48c7-9f75-fc5b0871a7f6" x="98.8" y="58.9" width="2.9" height="0.9" transform="translate(200.6 118.8) rotate(180)"/><rect class="bfbc2269-0fca-48c7-9f75-fc5b0871a7f6" x="73.1" y="58.9" width="24.4" height="0.9"/><rect class="bfbc2269-0fca-48c7-9f75-fc5b0871a7f6" x="60.1" y="49.7" width="27.7" height="0.9"/><rect class="bfbc2269-0fca-48c7-9f75-fc5b0871a7f6" x="46.7" y="48.4" width="1.4" height="1.44"/><rect class="bfbc2269-0fca-48c7-9f75-fc5b0871a7f6" x="46.7" y="52.2" width="1.4" height="1.44"/><rect class="bfbc2269-0fca-48c7-9f75-fc5b0871a7f6" x="46.7" y="56" width="1.4" height="1.44"/><rect class="bfbc2269-0fca-48c7-9f75-fc5b0871a7f6" x="46.7" y="59.8" width="1.4" height="1.44"/><rect class="bfbc2269-0fca-48c7-9f75-fc5b0871a7f6" x="46.7" y="63.6" width="1.4" height="1.44"/><rect class="bfbc2269-0fca-48c7-9f75-fc5b0871a7f6" x="46.7" y="67.4" width="1.4" height="1.44"/><rect class="bfbc2269-0fca-48c7-9f75-fc5b0871a7f6" x="46.7" y="71.2" width="1.4" height="1.44"/><rect class="bfbc2269-0fca-48c7-9f75-fc5b0871a7f6" x="46.7" y="75" width="1.4" height="1.44"/><rect class="bfbc2269-0fca-48c7-9f75-fc5b0871a7f6" x="46.7" y="78.7" width="1.4" height="1.44"/><rect class="bfbc2269-0fca-48c7-9f75-fc5b0871a7f6" x="46.7" y="82.5" width="1.4" height="1.44"/><g class="f5144bfa-0069-4f88-822e-9d8b02f0a839"><path class="be170f6d-cbc2-4d09-9b9a-48031d3b3328" d="M40.6,41.9a.6.6,0,0,0-.6.6V59H67.3a2.9,2.9,0,0,0,2.9-2.9V41.9Z"/></g><rect class="bfbc2269-0fca-48c7-9f75-fc5b0871a7f6" x="34.6" y="32.9" width="34.3" height="24.85" rx="4.6"/><path class="ffd9eaac-52f4-4db5-9b49-b609e3aa6154" d="M34.6,38.2V34.6a1.8,1.8,0,0,1,1.8-1.7H67.2a1.7,1.7,0,0,1,1.7,1.7v3.6Z"/><path class="bacb59b6-ce88-433e-907c-d0285dddc2f9" d="M67.2,58.5H36.4A2.5,2.5,0,0,1,33.9,56V34.6a2.5,2.5,0,0,1,2.5-2.5h4.5v1.5H36.4a1,1,0,0,0-1,1V56a.9.9,0,0,0,1,1H67.2a.9.9,0,0,0,1-1V34.6a1,1,0,0,0-1-1H46.9V32.1H67.2a2.5,2.5,0,0,1,2.5,2.5V56A2.5,2.5,0,0,1,67.2,58.5Z"/><rect class="bacb59b6-ce88-433e-907c-d0285dddc2f9" x="42.2" y="32.1" width="2.7" height="1.5"/><rect class="bacb59b6-ce88-433e-907c-d0285dddc2f9" x="34.6" y="37.5" width="34.3" height="1.5"/><rect class="bacb59b6-ce88-433e-907c-d0285dddc2f9" x="37.4" y="35.1" width="0.6" height="1.5"/><rect class="bacb59b6-ce88-433e-907c-d0285dddc2f9" x="39.6" y="35.1" width="0.6" height="1.5"/><rect class="bacb59b6-ce88-433e-907c-d0285dddc2f9" x="41.8" y="35.1" width="0.6" height="1.5"/><path class="bacb59b6-ce88-433e-907c-d0285dddc2f9" d="M45.2,47.1V46l3.7-1.7v1.1l-2.4,1.1,2.4,1.2v1.1Z"/><path class="bacb59b6-ce88-433e-907c-d0285dddc2f9" d="M52.8,43.4h1.1l-3.2,7h-1Z"/><path class="bacb59b6-ce88-433e-907c-d0285dddc2f9" d="M58.4,46v1.1l-3.7,1.7V47.7l2.4-1.2-2.4-1.1V44.3Z"/><path class="bfbc2269-0fca-48c7-9f75-fc5b0871a7f6" d="M161,93.4h2.9a.4.4,0,0,0,.4-.4V51.8c0-.1-.1-.1-.1-.2l-1.4-3.1c-.2-.3-.6-.3-.7,0l-1.5,3.1V93A.4.4,0,0,0,161,93.4Z"/><rect class="ac9e521f-5e1a-4097-b5de-2136ee12f807" x="160.6" y="53.1" width="3.6" height="36.38"/><rect class="a58257c1-1c5e-4db3-a2fc-3fc852f90ca3" x="160.6" y="53.1" width="1.8" height="36.38"/><path class="bacb59b6-ce88-433e-907c-d0285dddc2f9" d="M165,94.2h-5.1V51.5l1.6-3.6a1.1,1.1,0,0,1,.9-.6,1,1,0,0,1,.9.6l1.7,3.6Zm-3.6-1.5h2.1V51.9l-1.1-2.4-1,2.4Z"/><rect class="bacb59b6-ce88-433e-907c-d0285dddc2f9" x="160.6" y="52.4" width="3.8" height="1.5"/><rect class="bacb59b6-ce88-433e-907c-d0285dddc2f9" x="160.3" y="88.7" width="4.2" height="1.5"/><path class="ac9e521f-5e1a-4097-b5de-2136ee12f807" d="M167.5,50.6c0-1.8,2.1-3.2,2.7-4.2s1.2-6,1.2-6c3.3.6,3.9,7.5,3.9,10.2s-1.8,5-3.9,5S167.5,53.4,167.5,50.6Z"/><path class="bfbc2269-0fca-48c7-9f75-fc5b0871a7f6" d="M171.4,62.7h0a3.3,3.3,0,0,1,3,3.6l-1.5,22.3a12.5,12.5,0,0,1-1.4,5h-.1a12.2,12.2,0,0,1-1.6-5.4l-1.3-22A3.2,3.2,0,0,1,171.4,62.7Z"/><path class="bacb59b6-ce88-433e-907c-d0285dddc2f9" d="M171.4,56.3c-2.5,0-4.6-2.5-4.6-5.7,0-1.5,1.1-2.7,1.9-3.6a3.1,3.1,0,0,0,.8-1,15.1,15.1,0,0,0,1.2-5.6v-.9l.8.2c4.3.8,4.5,9.2,4.5,10.9S174,56.3,171.4,56.3Zm.7-14.7a12.8,12.8,0,0,1-1.3,5.1,4.1,4.1,0,0,1-1,1.3c-.7.8-1.5,1.7-1.5,2.6s1.4,4.2,3.1,4.2,3.1-1.9,3.1-4.2S174,43,172.1,41.6Z"/><path class="bacb59b6-ce88-433e-907c-d0285dddc2f9" d="M171.4,94.3a1.2,1.2,0,0,1-.8-.4,15.2,15.2,0,0,1-1.6-5.5l-1.3-22.1a4.5,4.5,0,0,1,1.1-3.2,3.6,3.6,0,0,1,5.2,0,4.3,4.3,0,0,1,1.1,3.3l-1.4,22.2a22.9,22.9,0,0,1-1.5,5.2.8.8,0,0,1-.7.5Zm0-30.8a2.2,2.2,0,0,0-1.5.6,3.1,3.1,0,0,0-.7,2.1l1.3,22.1a13.7,13.7,0,0,0,.8,3.5,13.8,13.8,0,0,0,.9-3.3l1.4-22.2a2.8,2.8,0,0,0-.7-2.2A2,2,0,0,0,171.4,63.5Z"/><rect class="a58257c1-1c5e-4db3-a2fc-3fc852f90ca3" x="168.4" y="54.3" width="5.9" height="11.95" transform="translate(342.8 120.5) rotate(180)"/><rect class="ffd9eaac-52f4-4db5-9b49-b609e3aa6154" x="168.4" y="54.3" width="3" height="11.95" transform="translate(339.9 120.5) rotate(-180)"/><path class="bacb59b6-ce88-433e-907c-d0285dddc2f9" d="M175.1,67h-7.4V53.5h7.4Zm-5.9-1.5h4.4V55h-4.4Z"/><g class="f5144bfa-0069-4f88-822e-9d8b02f0a839"><path class="be170f6d-cbc2-4d09-9b9a-48031d3b3328" d="M162.7,20.9a1.9,1.9,0,0,0-2-1.9h-10a51.8,51.8,0,0,0-6.3,5.6l-.4.5.4.5c.4.5,9.2,10.1,16.5,10.1a8.5,8.5,0,0,0,2.3-.3V34.3h-.5Z"/></g><path class="bfbc2269-0fca-48c7-9f75-fc5b0871a7f6" d="M177.9,24.1s-8.9,9.8-16,9.8S146,24.1,146,24.1s8.8-9.8,15.9-9.8S177.9,24.1,177.9,24.1Z"/><path class="bacb59b6-ce88-433e-907c-d0285dddc2f9" d="M161.9,34.7c-7.3,0-16.1-9.6-16.5-10.1l-.4-.5.4-.5c.4-.4,9.2-10,16.5-10s16.2,9.6,16.5,10l.5.5-.5.5C178.1,25.1,169.3,34.7,161.9,34.7ZM147,24.1c1.9,2,9.1,9.1,14.9,9.1s13-7.1,14.9-9.1c-1.9-1.9-9.1-9-14.9-9S148.9,22.2,147,24.1Z"/><path class="a58257c1-1c5e-4db3-a2fc-3fc852f90ca3" d="M169,24.1a7,7,0,0,0-7-7V31.2A7.1,7.1,0,0,0,169,24.1Z"/><path class="ffd9eaac-52f4-4db5-9b49-b609e3aa6154" d="M161.9,17.1a7,7,0,0,0-7,7,7,7,0,0,0,7,7.1h0V17.1Z"/><path class="bfbc2269-0fca-48c7-9f75-fc5b0871a7f6" d="M165.4,24.1a3.5,3.5,0,0,1-3.5,3.5,3.5,3.5,0,0,1,0-6.9A3.5,3.5,0,0,1,165.4,24.1Z"/><path class="bacb59b6-ce88-433e-907c-d0285dddc2f9" d="M161.9,32.3a8.2,8.2,0,0,1-8.1-8.2,8.1,8.1,0,0,1,8.1-8.1,8.2,8.2,0,0,1,8.2,8.1A8.2,8.2,0,0,1,161.9,32.3Zm0-14.8a6.7,6.7,0,1,0,6.7,6.6A6.7,6.7,0,0,0,161.9,17.5Z"/><path class="ac9e521f-5e1a-4097-b5de-2136ee12f807" d="M164.1,24.1a2.2,2.2,0,1,1-2.2-2.1A2.2,2.2,0,0,1,164.1,24.1Z"/><polygon class="bacb59b6-ce88-433e-907c-d0285dddc2f9" points="149.2 15.4 147.7 15.4 147.7 11.8 151 11.8 151 13.3 149.2 13.3 149.2 15.4"/><polygon class="bacb59b6-ce88-433e-907c-d0285dddc2f9" points="176.3 38 173 38 173 36.5 174.8 36.5 174.8 34.5 176.3 34.5 176.3 38"/><rect class="ffd9eaac-52f4-4db5-9b49-b609e3aa6154" x="156.3" y="62.6" width="11.2" height="50.77" rx="1.4" transform="translate(249.8 -73.9) rotate(90)"/><path class="a40cdd92-699f-43ee-a2a6-28fcaf778477" d="M136.5,83.8v3.6h50.7V83.8a1.4,1.4,0,0,0-1.4-1.4H137.9A1.4,1.4,0,0,0,136.5,83.8Z"/><path class="bacb59b6-ce88-433e-907c-d0285dddc2f9" d="M185.8,94.3H137.9a2.2,2.2,0,0,1-2.2-2.2V83.8a2.2,2.2,0,0,1,2.2-2.2h47.9a2.2,2.2,0,0,1,2.2,2.2v8.3A2.2,2.2,0,0,1,185.8,94.3ZM137.9,83.1a.7.7,0,0,0-.7.7v8.3a.7.7,0,0,0,.7.7h47.9a.7.7,0,0,0,.7-.7V83.8a.7.7,0,0,0-.7-.7Z"/><rect class="bacb59b6-ce88-433e-907c-d0285dddc2f9" x="141.4" y="82.4" width="1.5" height="6.82"/><rect class="bacb59b6-ce88-433e-907c-d0285dddc2f9" x="146.2" y="82.4" width="1.5" height="3.41"/><rect class="bacb59b6-ce88-433e-907c-d0285dddc2f9" x="151" y="82.4" width="1.5" height="3.41"/><rect class="bacb59b6-ce88-433e-907c-d0285dddc2f9" x="155.8" y="82.4" width="1.5" height="3.41"/><rect class="bacb59b6-ce88-433e-907c-d0285dddc2f9" x="160.6" y="82.4" width="1.5" height="6.82"/><rect class="bacb59b6-ce88-433e-907c-d0285dddc2f9" x="165.4" y="82.4" width="1.5" height="3.41"/><rect class="bacb59b6-ce88-433e-907c-d0285dddc2f9" x="170.2" y="82.4" width="1.5" height="3.41"/><rect class="bacb59b6-ce88-433e-907c-d0285dddc2f9" x="175" y="82.4" width="1.5" height="3.41"/><rect class="bacb59b6-ce88-433e-907c-d0285dddc2f9" x="179.8" y="82.4" width="1.5" height="6.82"/><rect class="bacb59b6-ce88-433e-907c-d0285dddc2f9" x="21" y="93" width="2.7" height="1.5"/><rect class="bacb59b6-ce88-433e-907c-d0285dddc2f9" x="190.9" y="93" width="6" height="1.5"/><rect class="bacb59b6-ce88-433e-907c-d0285dddc2f9" x="25.5" y="93" width="163.8" height="1.5"/></g></g></svg>